<?xml version="1.0" encoding="utf-8"?>
<!-- Generator: Adobe Illustrator 28.1.0, SVG Export Plug-In . SVG Version: 6.00 Build 0)  -->
<svg version="1.1" xmlns="http://www.w3.org/2000/svg" xmlns:xlink="http://www.w3.org/1999/xlink" x="0px" y="0px"
	 viewBox="0 0 500 500" style="enable-background:new 0 0 500 500;" xml:space="preserve">
<style type="text/css">
	.st0{opacity:0.45;}
	.st1{fill:#DED7FF;}
	.st2{fill:none;stroke:#0F1B63;stroke-miterlimit:10;}
	.st3{fill:#B19CFE;}
	.st4{fill:#C1C1C1;}
	.st5{fill:#FFC655;}
	.st6{fill:#C60C88;}
	.st7{fill:#D42190;}
	.st8{opacity:0.5;fill:#FFFFFF;}
	.st9{fill:#542FD0;}
	.st10{fill:#0F1B63;}
	.st11{fill:#FFFFFF;}
	.st12{fill:none;stroke:#B19CFE;stroke-width:0.5;stroke-miterlimit:10;}
	.st13{font-family:'Montserrat-Bold';}
	.st14{font-size:25px;}
	.st15{font-size:18px;}
	.st16{font-size:19.2946px;}
	.st17{font-size:24.3464px;}
	.st18{font-size:18.2598px;}
</style>
<g id="BACKGROUND">
	<rect id="BACKGROUND_1_" x="1.13" y="1.13" width="497.74" height="497.74"/>
</g>
<g id="OBJECTS">
	<g class="st0">
		<circle class="st1" cx="371.5" cy="373.5" r="82.5"/>
		<circle class="st1" cx="189.5" cy="209.5" r="140.5"/>
	</g>
	<path class="st2" d="M445.91,195.42l-4.19,3.84c-0.14,0.13-0.26,0.27-0.37,0.41c-2.66-1.86-5.59-3.19-8.64-4
		c0.04-0.18,0.07-0.37,0.08-0.56l0.22-5.68c0.07-1.77-1.31-3.26-3.08-3.33l-5.68-0.22c-1.77-0.07-3.26,1.31-3.33,3.08l-0.22,5.68
		c-0.01,0.19,0.01,0.38,0.03,0.56c-3.02,0.55-5.96,1.61-8.7,3.18c-0.1-0.15-0.21-0.3-0.34-0.44l-3.84-4.19
		c-1.2-1.31-3.23-1.39-4.53-0.2l-4.19,3.84c-1.31,1.2-1.39,3.23-0.2,4.53l3.84,4.19c0.13,0.14,0.27,0.26,0.41,0.37
		c-1.86,2.66-3.19,5.59-4,8.64c-0.18-0.04-0.37-0.07-0.56-0.08l-5.68-0.22c-0.85-0.03-1.67,0.26-2.29,0.84c0,0-0.01,0.01-0.01,0.01
		c-0.63,0.58-0.99,1.37-1.03,2.23l-0.22,5.68l0,0c-0.07,1.77,1.31,3.26,3.08,3.33l5.68,0.22c0.19,0.01,0.38-0.01,0.56-0.03
		c0.55,3.02,1.61,5.97,3.18,8.71c-0.15,0.1-0.3,0.21-0.44,0.34l-4.19,3.84c-1.31,1.2-1.39,3.23-0.2,4.53l3.84,4.19
		c1.2,1.31,3.23,1.39,4.53,0.2l4.19-3.84c0.14-0.13,0.26-0.27,0.37-0.41c2.66,1.86,5.59,3.19,8.64,4c-0.04,0.18-0.07,0.37-0.08,0.56
		l-0.22,5.68c-0.03,0.86,0.27,1.68,0.85,2.3c0.58,0.63,1.37,0.99,2.23,1.03l5.68,0.22l0,0c0.88,0.03,1.69-0.29,2.29-0.84
		c0.61-0.56,1.01-1.35,1.04-2.24l0.22-5.68c0.01-0.19-0.01-0.38-0.03-0.56c3.02-0.55,5.97-1.61,8.71-3.18
		c0.1,0.15,0.21,0.3,0.34,0.44l3.84,4.19c1.2,1.31,3.23,1.39,4.53,0.2l4.19-3.84c1.31-1.2,1.39-3.23,0.2-4.53l-3.84-4.19
		c-0.13-0.14-0.27-0.26-0.41-0.37c1.86-2.66,3.19-5.59,4-8.64c0.18,0.04,0.37,0.07,0.56,0.08l5.68,0.22
		c0.88,0.03,1.69-0.29,2.29-0.84c0.61-0.56,1.01-1.35,1.04-2.24l0.22-5.68c0.07-1.77-1.31-3.26-3.08-3.33l-5.68-0.22
		c-0.19-0.01-0.38,0.01-0.56,0.03c-0.55-3.02-1.61-5.96-3.18-8.7c0.15-0.1,0.3-0.21,0.44-0.34l4.19-3.84
		c1.31-1.2,1.39-3.23,0.2-4.53l-3.84-4.19C449.25,194.32,447.22,194.23,445.91,195.42z M435.84,233.29
		c-6.13,5.61-15.68,5.19-21.29-0.94c-5.61-6.13-5.19-15.68,0.94-21.29c6.13-5.61,15.68-5.19,21.29,0.94
		C442.39,218.12,441.97,227.67,435.84,233.29z"/>
	<g>
		<g>
			<g>
				<g>
					<path class="st3" d="M114.39,415.76h-2.21c-0.41,0-0.74-0.33-0.74-0.74s0.33-0.74,0.74-0.74h2.21c0.41,0,0.74,0.33,0.74,0.74
						S114.8,415.76,114.39,415.76z M107.25,415.76h-4.92c-0.41,0-0.74-0.33-0.74-0.74s0.33-0.74,0.74-0.74h4.92
						c0.41,0,0.74,0.33,0.74,0.74S107.66,415.76,107.25,415.76z M97.4,415.76h-4.92c-0.41,0-0.74-0.33-0.74-0.74
						s0.33-0.74,0.74-0.74h4.92c0.41,0,0.74,0.33,0.74,0.74S97.81,415.76,97.4,415.76z M87.55,415.76h-4.93
						c-0.41,0-0.74-0.33-0.74-0.74s0.33-0.74,0.74-0.74h4.93c0.41,0,0.74,0.33,0.74,0.74S87.96,415.76,87.55,415.76z M77.7,415.76
						h-4.92c-0.41,0-0.74-0.33-0.74-0.74s0.33-0.74,0.74-0.74h4.92c0.41,0,0.74,0.33,0.74,0.74S78.11,415.76,77.7,415.76z
						 M67.85,415.76h-4.92c-0.41,0-0.74-0.33-0.74-0.74s0.33-0.74,0.74-0.74h4.92c0.41,0,0.74,0.33,0.74,0.74
						S68.26,415.76,67.85,415.76z M58,415.75c-0.01,0-0.01,0-0.02,0c-1.72-0.05-3.41-0.33-5.04-0.83c-0.39-0.12-0.61-0.53-0.49-0.92
						c0.12-0.39,0.53-0.61,0.92-0.49c1.5,0.47,3.06,0.72,4.64,0.77c0.41,0.01,0.73,0.35,0.72,0.76
						C58.73,415.43,58.4,415.75,58,415.75z M48.72,412.86c-0.14,0-0.28-0.04-0.4-0.12c-1.43-0.93-2.73-2.05-3.87-3.34
						c-0.27-0.31-0.24-0.77,0.07-1.04c0.3-0.27,0.77-0.24,1.04,0.06c1.05,1.18,2.25,2.22,3.57,3.07c0.34,0.22,0.44,0.68,0.22,1.02
						C49.2,412.74,48.96,412.86,48.72,412.86z M42.28,405.57c-0.28,0-0.54-0.15-0.67-0.42c-0.74-1.54-1.27-3.18-1.57-4.86
						c-0.07-0.4,0.2-0.79,0.6-0.86c0.4-0.07,0.78,0.2,0.86,0.6c0.28,1.55,0.76,3.06,1.45,4.48c0.18,0.37,0.02,0.81-0.34,0.99
						C42.5,405.55,42.39,405.57,42.28,405.57z M40.49,395.99c-0.41,0-0.74-0.33-0.74-0.74v-4.93c0-0.41,0.33-0.74,0.74-0.74
						c0.41,0,0.74,0.33,0.74,0.74v4.93C41.23,395.66,40.9,395.99,40.49,395.99z M40.49,386.14c-0.41,0-0.74-0.33-0.74-0.74v-4.92
						c0-0.41,0.33-0.74,0.74-0.74c0.41,0,0.74,0.33,0.74,0.74v4.92C41.23,385.81,40.9,386.14,40.49,386.14z M40.49,376.29
						c-0.41,0-0.74-0.33-0.74-0.74v-4.93c0-0.41,0.33-0.74,0.74-0.74c0.41,0,0.74,0.33,0.74,0.74v4.93
						C41.23,375.96,40.9,376.29,40.49,376.29z M40.49,366.44c-0.41,0-0.74-0.33-0.74-0.74v-4.92c0-0.41,0.33-0.74,0.74-0.74
						c0.41,0,0.74,0.33,0.74,0.74v4.92C41.23,366.11,40.9,366.44,40.49,366.44z M40.49,356.59c-0.41,0-0.74-0.33-0.74-0.74v-4.92
						c0-0.41,0.33-0.74,0.74-0.74c0.41,0,0.74,0.33,0.74,0.74v4.92C41.23,356.26,40.9,356.59,40.49,356.59z M40.49,346.74
						c-0.41,0-0.74-0.33-0.74-0.74v-4.92c0-0.41,0.33-0.74,0.74-0.74c0.41,0,0.74,0.33,0.74,0.74V346
						C41.23,346.41,40.9,346.74,40.49,346.74z M40.49,336.89c-0.41,0-0.74-0.33-0.74-0.74v-4.92c0-0.41,0.33-0.74,0.74-0.74
						c0.41,0,0.74,0.33,0.74,0.74v4.92C41.23,336.56,40.9,336.89,40.49,336.89z M40.49,327.04c-0.41,0-0.74-0.33-0.74-0.74v-4.92
						c0-0.41,0.33-0.74,0.74-0.74c0.41,0,0.74,0.33,0.74,0.74v4.92C41.23,326.71,40.9,327.04,40.49,327.04z M40.49,317.19
						c-0.41,0-0.74-0.33-0.74-0.74v-4.92c0-0.41,0.33-0.74,0.74-0.74c0.41,0,0.74,0.33,0.74,0.74v4.92
						C41.23,316.86,40.9,317.19,40.49,317.19z M40.49,307.34c-0.41,0-0.74-0.33-0.74-0.74v-4.93c0-0.41,0.33-0.74,0.74-0.74
						c0.41,0,0.74,0.33,0.74,0.74v4.93C41.23,307.01,40.9,307.34,40.49,307.34z M40.49,297.49c-0.41,0-0.74-0.33-0.74-0.74v-4.92
						c0-0.41,0.33-0.74,0.74-0.74c0.41,0,0.74,0.33,0.74,0.74v4.92C41.23,297.16,40.9,297.49,40.49,297.49z M40.49,287.64
						c-0.41,0-0.74-0.33-0.74-0.74v-4.93c0-0.41,0.33-0.74,0.74-0.74c0.41,0,0.74,0.33,0.74,0.74v4.93
						C41.23,287.31,40.9,287.64,40.49,287.64z M40.49,277.79c-0.41,0-0.74-0.33-0.74-0.74v-0.5c0-1.54,0.19-3.08,0.56-4.56
						c0.1-0.4,0.51-0.64,0.9-0.54c0.4,0.1,0.64,0.5,0.54,0.9c-0.34,1.37-0.51,2.78-0.51,4.2v0.5
						C41.23,277.46,40.9,277.79,40.49,277.79z M42.85,268.36c-0.12,0-0.25-0.03-0.37-0.1c-0.35-0.2-0.48-0.65-0.28-1.01
						c0.85-1.48,1.89-2.85,3.11-4.05c0.29-0.29,0.76-0.28,1.04,0.01c0.29,0.29,0.28,0.76-0.01,1.05c-1.12,1.11-2.09,2.37-2.87,3.73
						C43.36,268.23,43.11,268.36,42.85,268.36z M49.77,261.52c-0.26,0-0.51-0.14-0.65-0.38c-0.2-0.36-0.07-0.81,0.29-1
						c1.5-0.83,3.1-1.45,4.77-1.85c0.4-0.09,0.79,0.15,0.89,0.55c0.09,0.4-0.15,0.8-0.55,0.89c-1.53,0.36-3.01,0.93-4.39,1.7
						C50.02,261.49,49.89,261.52,49.77,261.52z M172.51,259.26h-4.92c-0.41,0-0.74-0.33-0.74-0.74c0-0.41,0.33-0.74,0.74-0.74h4.92
						c0.41,0,0.74,0.33,0.74,0.74C173.25,258.93,172.92,259.26,172.51,259.26z M162.66,259.26h-4.92c-0.41,0-0.74-0.33-0.74-0.74
						c0-0.41,0.33-0.74,0.74-0.74h4.92c0.41,0,0.74,0.33,0.74,0.74C163.4,258.93,163.07,259.26,162.66,259.26z M152.81,259.26h-4.92
						c-0.41,0-0.74-0.33-0.74-0.74c0-0.41,0.33-0.74,0.74-0.74h4.92c0.41,0,0.74,0.33,0.74,0.74
						C153.55,258.93,153.22,259.26,152.81,259.26z M142.96,259.26h-4.92c-0.41,0-0.74-0.33-0.74-0.74c0-0.41,0.33-0.74,0.74-0.74
						h4.92c0.41,0,0.74,0.33,0.74,0.74C143.7,258.93,143.37,259.26,142.96,259.26z M133.11,259.26h-4.92
						c-0.41,0-0.74-0.33-0.74-0.74c0-0.41,0.33-0.74,0.74-0.74h4.92c0.41,0,0.74,0.33,0.74,0.74
						C133.85,258.93,133.52,259.26,133.11,259.26z M123.26,259.26h-4.93c-0.41,0-0.74-0.33-0.74-0.74c0-0.41,0.33-0.74,0.74-0.74
						h4.93c0.41,0,0.74,0.33,0.74,0.74C124,258.93,123.67,259.26,123.26,259.26z M113.41,259.26h-4.92c-0.41,0-0.74-0.33-0.74-0.74
						c0-0.41,0.33-0.74,0.74-0.74h4.92c0.41,0,0.74,0.33,0.74,0.74C114.15,258.93,113.82,259.26,113.41,259.26z M103.56,259.26
						h-4.92c-0.41,0-0.74-0.33-0.74-0.74c0-0.41,0.33-0.74,0.74-0.74h4.92c0.41,0,0.74,0.33,0.74,0.74
						C104.3,258.93,103.97,259.26,103.56,259.26z M93.71,259.26h-4.93c-0.41,0-0.74-0.33-0.74-0.74c0-0.41,0.33-0.74,0.74-0.74h4.93
						c0.41,0,0.74,0.33,0.74,0.74C94.45,258.93,94.12,259.26,93.71,259.26z M83.86,259.26h-4.92c-0.41,0-0.74-0.33-0.74-0.74
						c0-0.41,0.33-0.74,0.74-0.74h4.92c0.41,0,0.74,0.33,0.74,0.74C84.6,258.93,84.27,259.26,83.86,259.26z M74.01,259.26h-4.92
						c-0.41,0-0.74-0.33-0.74-0.74c0-0.41,0.33-0.74,0.74-0.74h4.92c0.41,0,0.74,0.33,0.74,0.74
						C74.75,258.93,74.42,259.26,74.01,259.26z M64.16,259.26h-4.92c-0.41,0-0.74-0.33-0.74-0.74c0-0.41,0.33-0.74,0.74-0.74h4.92
						c0.41,0,0.74,0.33,0.74,0.74C64.9,258.93,64.57,259.26,64.16,259.26z"/>
				</g>
			</g>
			<g>
				<g>
					<circle class="st3" cx="40.49" cy="336.99" r="3.22"/>
				</g>
				<g>
					<path class="st3" d="M40.49,343.02c-3.33,0-6.03-2.71-6.03-6.03c0-3.33,2.71-6.03,6.03-6.03c3.33,0,6.03,2.71,6.03,6.03
						C46.52,340.32,43.81,343.02,40.49,343.02z M40.49,331.7c-2.92,0-5.29,2.37-5.29,5.29s2.37,5.29,5.29,5.29
						c2.92,0,5.29-2.37,5.29-5.29S43.41,331.7,40.49,331.7z"/>
				</g>
			</g>
		</g>
	</g>
	<g>
		<g>
			<g>
				<path class="st3" d="M206.3,236.75c-0.5,0-0.9-0.4-0.9-0.9v-5.99c0-0.5,0.4-0.9,0.9-0.9c0.5,0,0.9,0.4,0.9,0.9v5.99
					C207.2,236.35,206.79,236.75,206.3,236.75z M206.3,224.77c-0.5,0-0.9-0.4-0.9-0.9v-5.99c0-0.5,0.4-0.9,0.9-0.9
					c0.5,0,0.9,0.4,0.9,0.9v5.99C207.2,224.37,206.79,224.77,206.3,224.77z M206.3,212.78c-0.5,0-0.9-0.4-0.9-0.9v-5.99
					c0-0.5,0.4-0.9,0.9-0.9c0.5,0,0.9,0.4,0.9,0.9v5.99C207.2,212.38,206.79,212.78,206.3,212.78z M206.3,200.8
					c-0.5,0-0.9-0.4-0.9-0.9v-5.99c0-0.5,0.4-0.9,0.9-0.9c0.5,0,0.9,0.4,0.9,0.9v5.99C207.2,200.4,206.79,200.8,206.3,200.8z
					 M206.3,188.82c-0.5,0-0.9-0.4-0.9-0.9v-5.99c0-0.5,0.4-0.9,0.9-0.9c0.5,0,0.9,0.4,0.9,0.9v5.99
					C207.2,188.41,206.79,188.82,206.3,188.82z M206.3,176.83c-0.5,0-0.9-0.4-0.9-0.9v-5.99c0-0.5,0.4-0.9,0.9-0.9
					c0.5,0,0.9,0.4,0.9,0.9v5.99C207.2,176.43,206.79,176.83,206.3,176.83z M301.46,166.04c-0.5,0-0.9-0.4-0.9-0.9v-3.33
					c0-0.5,0.4-0.9,0.9-0.9c0.5,0,0.9,0.4,0.9,0.9v3.33C302.36,165.63,301.95,166.04,301.46,166.04z M206.3,164.85
					c-0.5,0-0.9-0.4-0.9-0.9v-5.99c0-0.5,0.4-0.9,0.9-0.9c0.5,0,0.9,0.4,0.9,0.9v5.99C207.2,164.45,206.79,164.85,206.3,164.85z
					 M301.46,156.72c-0.5,0-0.9-0.4-0.9-0.9v-5.99c0-0.5,0.4-0.9,0.9-0.9c0.5,0,0.9,0.4,0.9,0.9v5.99
					C302.36,156.32,301.95,156.72,301.46,156.72z M206.3,152.86c-0.5,0-0.9-0.4-0.9-0.9v-5.99c0-0.5,0.4-0.9,0.9-0.9
					c0.5,0,0.9,0.4,0.9,0.9v5.99C207.2,152.46,206.79,152.86,206.3,152.86z M301.46,144.73c-0.5,0-0.9-0.4-0.9-0.9v-5.99
					c0-0.5,0.4-0.9,0.9-0.9c0.5,0,0.9,0.4,0.9,0.9v5.99C302.36,144.33,301.95,144.73,301.46,144.73z M206.3,140.88
					c-0.5,0-0.9-0.4-0.9-0.9v-5.99c0-0.5,0.4-0.9,0.9-0.9c0.5,0,0.9,0.4,0.9,0.9v5.99C207.2,140.48,206.79,140.88,206.3,140.88z
					 M301.46,132.75c-0.5,0-0.9-0.4-0.9-0.9v-5.99c0-0.5,0.4-0.9,0.9-0.9c0.5,0,0.9,0.4,0.9,0.9v5.99
					C302.36,132.35,301.95,132.75,301.46,132.75z M206.3,128.9c-0.5,0-0.9-0.4-0.9-0.9V122c0-0.5,0.4-0.9,0.9-0.9
					c0.5,0,0.9,0.4,0.9,0.9V128C207.2,128.49,206.79,128.9,206.3,128.9z M301.46,120.77c-0.5,0-0.9-0.4-0.9-0.9v-5.99
					c0-0.5,0.4-0.9,0.9-0.9c0.5,0,0.9,0.4,0.9,0.9v5.99C302.36,120.36,301.95,120.77,301.46,120.77z M206.3,116.91
					c-0.5,0-0.9-0.4-0.9-0.9v-5.99c0-0.5,0.4-0.9,0.9-0.9c0.5,0,0.9,0.4,0.9,0.9v5.99C207.2,116.51,206.79,116.91,206.3,116.91z
					 M301.46,108.78c-0.5,0-0.9-0.4-0.9-0.9v-5.99c0-0.5,0.4-0.9,0.9-0.9c0.5,0,0.9,0.4,0.9,0.9v5.99
					C302.36,108.38,301.95,108.78,301.46,108.78z M206.3,104.93c-0.5,0-0.9-0.4-0.9-0.9v-5.99c0-0.5,0.4-0.9,0.9-0.9
					c0.5,0,0.9,0.4,0.9,0.9v5.99C207.2,104.52,206.79,104.93,206.3,104.93z M301.42,96.8c-0.47,0-0.87-0.37-0.9-0.85
					c-0.11-1.92-0.48-3.81-1.1-5.62c-0.16-0.47,0.09-0.98,0.56-1.14c0.46-0.16,0.98,0.09,1.14,0.56c0.67,1.96,1.08,4.02,1.19,6.1
					c0.03,0.5-0.35,0.92-0.85,0.95C301.45,96.8,301.44,96.8,301.42,96.8z M206.89,92.99c-0.07,0-0.14-0.01-0.21-0.02
					c-0.48-0.11-0.78-0.6-0.67-1.08c0.48-2.03,1.24-3.98,2.25-5.8c0.24-0.43,0.79-0.59,1.22-0.35c0.43,0.24,0.59,0.79,0.35,1.22
					c-0.93,1.68-1.63,3.47-2.07,5.34C207.66,92.71,207.29,92.99,206.89,92.99z M297.59,85.61c-0.29,0-0.57-0.14-0.74-0.39
					c-1.09-1.58-2.39-3-3.87-4.23c-0.38-0.32-0.43-0.88-0.11-1.27c0.32-0.38,0.88-0.43,1.27-0.12c1.6,1.33,3.01,2.88,4.19,4.59
					c0.28,0.41,0.18,0.97-0.23,1.25C297.94,85.56,297.76,85.61,297.59,85.61z M212.63,82.64c-0.23,0-0.46-0.09-0.63-0.26
					c-0.35-0.35-0.36-0.92-0.01-1.27c1.47-1.48,3.12-2.76,4.93-3.79c0.43-0.25,0.98-0.1,1.23,0.33c0.25,0.43,0.1,0.98-0.33,1.23
					c-1.66,0.95-3.19,2.12-4.54,3.49C213.09,82.55,212.86,82.64,212.63,82.64z M288.49,78.04c-0.12,0-0.25-0.03-0.37-0.08
					c-1.75-0.78-3.6-1.32-5.5-1.61c-0.49-0.07-0.83-0.53-0.76-1.02c0.07-0.49,0.53-0.84,1.02-0.76c2.06,0.3,4.07,0.89,5.97,1.74
					c0.45,0.2,0.66,0.74,0.45,1.19C289.16,77.84,288.83,78.04,288.49,78.04z M222.9,76.78c-0.4,0-0.77-0.27-0.87-0.68
					c-0.12-0.48,0.17-0.97,0.65-1.09c1.8-0.45,3.67-0.68,5.55-0.68h0.61c0.5,0,0.9,0.4,0.9,0.9c0,0.5-0.4,0.9-0.9,0.9h-0.61
					c-1.73,0-3.45,0.21-5.11,0.62C223.05,76.77,222.97,76.78,222.9,76.78z M276.78,76.12h-5.99c-0.5,0-0.9-0.4-0.9-0.9
					c0-0.5,0.4-0.9,0.9-0.9h5.99c0.5,0,0.9,0.4,0.9,0.9C277.68,75.72,277.27,76.12,276.78,76.12z M264.79,76.12h-5.99
					c-0.5,0-0.9-0.4-0.9-0.9c0-0.5,0.4-0.9,0.9-0.9h5.99c0.5,0,0.9,0.4,0.9,0.9C265.69,75.72,265.29,76.12,264.79,76.12z
					 M252.81,76.12h-5.99c-0.5,0-0.9-0.4-0.9-0.9c0-0.5,0.4-0.9,0.9-0.9h5.99c0.5,0,0.9,0.4,0.9,0.9
					C253.71,75.72,253.3,76.12,252.81,76.12z M240.82,76.12h-5.99c-0.5,0-0.9-0.4-0.9-0.9c0-0.5,0.4-0.9,0.9-0.9h5.99
					c0.5,0,0.9,0.4,0.9,0.9C241.72,75.72,241.32,76.12,240.82,76.12z"/>
			</g>
		</g>
		<g>
			<g>
				<g>
					<circle class="st3" cx="253.88" cy="75.23" r="3.38"/>
				</g>
			</g>
			<g>
				<g>
					<path class="st3" d="M253.88,81.55c-3.49,0-6.33-2.84-6.33-6.33c0-3.49,2.84-6.33,6.33-6.33c3.49,0,6.33,2.84,6.33,6.33
						C260.21,78.72,257.37,81.55,253.88,81.55z M253.88,69.67c-3.06,0-5.55,2.49-5.55,5.55c0,3.06,2.49,5.55,5.55,5.55
						c3.06,0,5.55-2.49,5.55-5.55C259.43,72.16,256.94,69.67,253.88,69.67z"/>
				</g>
			</g>
		</g>
	</g>
	<g>
		<rect x="199.96" y="123.91" class="st4" width="57.95" height="9.91"/>
		<path class="st5" d="M304.73,120.18h-41.43c-3.01,0-5.87,1.01-7.81,2.76l-11.25,8.42H199.9c-1.85,0-3.36,1.5-3.36,3.36v61.36
			c0,1.85,1.5,3.36,3.36,3.36h108.02c1.85,0,3.36-1.5,3.36-3.36V136.8v-2.08v-7.08C311.28,123.7,308.35,120.18,304.73,120.18z"/>
	</g>
	<path class="st2" d="M133.52,305.62l-6.14,5.96c-0.2,0.2-0.38,0.41-0.54,0.64c-4.09-2.68-8.55-4.56-13.17-5.64
		c0.05-0.28,0.09-0.56,0.09-0.85l0.09-8.56c0.03-2.66-2.11-4.85-4.78-4.88l-8.56-0.09c-2.66-0.03-4.85,2.11-4.88,4.78l-0.09,8.56
		c0,0.29,0.03,0.57,0.07,0.85c-4.52,0.95-8.9,2.67-12.96,5.15c-0.15-0.23-0.33-0.45-0.52-0.65l-5.96-6.14
		c-1.85-1.91-4.92-1.96-6.83-0.11l-6.14,5.96c-1.91,1.85-1.96,4.92-0.11,6.83l5.96,6.14c0.2,0.2,0.41,0.38,0.64,0.54
		c-2.68,4.09-4.56,8.55-5.64,13.17c-0.28-0.05-0.56-0.09-0.85-0.09l-8.56-0.09c-1.28-0.01-2.49,0.47-3.41,1.36
		c-0.01,0.01-0.01,0.01-0.02,0.02c-0.92,0.9-1.44,2.11-1.45,3.4l-0.09,8.56l0,0c-0.03,2.66,2.11,4.85,4.78,4.88l8.56,0.09
		c0.29,0,0.57-0.03,0.85-0.08c0.95,4.52,2.67,8.9,5.15,12.96c-0.23,0.15-0.45,0.33-0.65,0.52l-6.14,5.96
		c-1.91,1.85-1.96,4.92-0.11,6.83l5.96,6.14c1.85,1.91,4.92,1.96,6.83,0.11l6.14-5.96c0.2-0.2,0.38-0.41,0.54-0.64
		c4.09,2.68,8.55,4.56,13.17,5.64c-0.05,0.28-0.09,0.56-0.09,0.85l-0.09,8.56c-0.01,1.29,0.47,2.51,1.38,3.43
		c0.9,0.92,2.11,1.44,3.4,1.45l8.56,0.09l0,0c1.32,0.01,2.53-0.51,3.41-1.36c0.89-0.87,1.45-2.07,1.47-3.41l0.09-8.56
		c0-0.29-0.03-0.57-0.08-0.85c4.52-0.95,8.9-2.67,12.96-5.15c0.15,0.23,0.33,0.45,0.53,0.65l5.96,6.14
		c1.85,1.91,4.92,1.96,6.83,0.11l6.14-5.96c1.91-1.85,1.96-4.92,0.11-6.83l-5.96-6.14c-0.2-0.2-0.41-0.38-0.64-0.54
		c2.68-4.09,4.56-8.55,5.64-13.17c0.28,0.05,0.56,0.09,0.85,0.09l8.56,0.09c1.32,0.01,2.53-0.51,3.41-1.36
		c0.89-0.87,1.45-2.07,1.47-3.41l0.09-8.56c0.03-2.66-2.11-4.85-4.78-4.88l-8.56-0.09c-0.29,0-0.57,0.03-0.85,0.07
		c-0.95-4.52-2.67-8.9-5.15-12.96c0.23-0.15,0.45-0.33,0.65-0.53l6.14-5.96c1.91-1.85,1.96-4.92,0.11-6.83l-5.96-6.14
		C138.49,303.81,135.43,303.76,133.52,305.62z M119.99,363.01c-8.98,8.7-23.37,8.48-32.07-0.5c-8.7-8.98-8.48-23.37,0.5-32.07
		c8.98-8.7,23.36-8.48,32.07,0.5C129.19,339.91,128.96,354.3,119.99,363.01z"/>
	<g>
		<rect x="204.51" y="375.76" class="st6" width="91.97" height="44.09"/>
		<path class="st7" d="M403.28,167.6v200.84c0,6.45-5.23,11.68-11.69,11.68H109.41c-6.45,0-11.69-5.23-11.69-11.68V167.6
			c0-6.45,5.24-11.69,11.69-11.69h282.18C398.05,155.92,403.28,161.15,403.28,167.6z"/>
		<path class="st8" d="M256,366c0,3.31-2.69,6-6,6c-3.31,0-6-2.69-6-6c0-3.31,2.69-6,6-6C253.31,360,256,362.69,256,366z"/>
		<path class="st1" d="M399.61,352.77V169.85c0-5.54-4.34-10.04-9.69-10.04H111.08c-5.35,0-9.69,4.49-9.69,10.04v182.91H399.61z"/>
		<path class="st7" d="M314.58,424.6H186.42v-0.31c0-5.08,4.12-9.19,9.19-9.19h109.77c5.08,0,9.19,4.12,9.19,9.19V424.6z"/>
	</g>
	<g>
		<path class="st3" d="M125.43,157.94c0-8.85-6.67-16.14-15.26-17.12c0.07-0.58,0.11-1.16,0.11-1.76c0-8.49-6.88-15.37-15.37-15.37
			c-2.27,0-4.43,0.51-6.37,1.39c-4.09-6.38-11.24-10.61-19.38-10.61c-12.71,0-23.02,10.3-23.02,23.02c0,1.12,0.08,2.22,0.24,3.3
			c-8.7,0.88-15.49,8.23-15.49,17.16c0,9.52,7.72,17.24,17.24,17.24h60.9v-0.04C118.17,174.69,125.43,167.17,125.43,157.94z"/>
		<polygon class="st5" points="89.21,188.34 89.21,161.55 67.12,161.55 67.12,188.34 60.21,188.34 78.16,205.16 96.11,188.34 		"/>
	</g>
	<g>
		<path class="st9" d="M333.23,170.61H279c-5.02,0-9.08-4.07-9.08-9.08v-18.04c0-5.02,4.07-9.08,9.08-9.08h54.24
			c5.02,0,9.08,4.07,9.08,9.08v18.04C342.32,166.54,338.25,170.61,333.23,170.61z"/>
	</g>
	<g>
		<path class="st9" d="M130.78,431.1H76.54c-5.02,0-9.08-4.07-9.08-9.08v-18.04c0-5.02,4.07-9.08,9.08-9.08h54.24
			c5.02,0,9.08,4.07,9.08,9.08v18.04C139.86,427.04,135.79,431.1,130.78,431.1z"/>
	</g>
	<g>
		<path class="st9" d="M156.86,277.96h-54.24c-5.02,0-9.08-4.07-9.08-9.08v-18.04c0-5.02,4.07-9.08,9.08-9.08h54.24
			c5.02,0,9.08,4.07,9.08,9.08v18.04C165.94,273.9,161.87,277.96,156.86,277.96z"/>
	</g>
	<g>
		<g>
			<path class="st3" d="M347.97,393.87h-2.58c-0.43,0-0.77-0.35-0.77-0.77c0-0.43,0.35-0.77,0.77-0.77h2.58
				c0.43,0,0.77,0.35,0.77,0.77C348.74,393.52,348.4,393.87,347.97,393.87z"/>
		</g>
		<g>
			<path class="st3" d="M409.98,393.87h-5.17c-0.43,0-0.78-0.35-0.78-0.77c0-0.43,0.35-0.77,0.78-0.77h5.17
				c0.43,0,0.78,0.35,0.78,0.77C410.75,393.52,410.41,393.87,409.98,393.87z M399.64,393.87h-5.17c-0.43,0-0.78-0.35-0.78-0.77
				c0-0.43,0.35-0.77,0.78-0.77h5.17c0.43,0,0.77,0.35,0.77,0.77C400.42,393.52,400.07,393.87,399.64,393.87z M389.31,393.87h-5.17
				c-0.43,0-0.77-0.35-0.77-0.77c0-0.43,0.35-0.77,0.77-0.77h5.17c0.43,0,0.77,0.35,0.77,0.77
				C390.08,393.52,389.74,393.87,389.31,393.87z M378.97,393.87h-5.17c-0.43,0-0.78-0.35-0.78-0.77c0-0.43,0.35-0.77,0.78-0.77h5.17
				c0.43,0,0.78,0.35,0.78,0.77C379.75,393.52,379.4,393.87,378.97,393.87z M368.64,393.87h-5.17c-0.43,0-0.77-0.35-0.77-0.77
				c0-0.43,0.35-0.77,0.77-0.77h5.17c0.43,0,0.78,0.35,0.78,0.77C369.41,393.52,369.07,393.87,368.64,393.87z M358.3,393.87h-5.17
				c-0.43,0-0.78-0.35-0.78-0.77c0-0.43,0.35-0.77,0.78-0.77h5.17c0.43,0,0.78,0.35,0.78,0.77
				C359.08,393.52,358.73,393.87,358.3,393.87z M415.1,393.27c-0.35,0-0.67-0.24-0.75-0.59c-0.1-0.42,0.15-0.83,0.57-0.94
				c1.61-0.39,3.18-0.98,4.65-1.75c0.38-0.2,0.85-0.05,1.05,0.33c0.2,0.38,0.05,0.85-0.33,1.05c-1.58,0.83-3.27,1.46-5,1.88
				C415.22,393.26,415.16,393.27,415.1,393.27z M424.18,388.54c-0.21,0-0.43-0.09-0.58-0.26c-0.28-0.32-0.25-0.81,0.07-1.09
				c1.25-1.1,2.36-2.34,3.31-3.7c0.24-0.35,0.73-0.44,1.08-0.19c0.35,0.25,0.44,0.73,0.19,1.08c-1.02,1.46-2.22,2.8-3.56,3.98
				C424.54,388.48,424.36,388.54,424.18,388.54z M430.03,380.15c-0.09,0-0.19-0.02-0.28-0.05c-0.4-0.15-0.6-0.6-0.44-1
				c0.6-1.55,1.01-3.17,1.21-4.82c0.05-0.42,0.43-0.73,0.87-0.67c0.42,0.05,0.73,0.44,0.67,0.87c-0.22,1.77-0.66,3.51-1.31,5.18
				C430.64,379.96,430.35,380.15,430.03,380.15z M431.46,370c-0.43,0-0.78-0.35-0.78-0.78v-5.17c0-0.43,0.35-0.78,0.78-0.78
				c0.43,0,0.78,0.35,0.78,0.78v5.17C432.24,369.65,431.89,370,431.46,370z M431.46,359.66c-0.43,0-0.78-0.35-0.78-0.77v-5.17
				c0-0.43,0.35-0.78,0.78-0.78c0.43,0,0.78,0.35,0.78,0.78v5.17C432.24,359.31,431.89,359.66,431.46,359.66z M431.46,349.32
				c-0.43,0-0.78-0.35-0.78-0.77v-5.17c0-0.43,0.35-0.77,0.78-0.77c0.43,0,0.78,0.35,0.78,0.77v5.17
				C432.24,348.98,431.89,349.32,431.46,349.32z M431.46,338.99c-0.43,0-0.78-0.35-0.78-0.77v-5.17c0-0.43,0.35-0.78,0.78-0.78
				c0.43,0,0.78,0.35,0.78,0.78v5.17C432.24,338.64,431.89,338.99,431.46,338.99z M431.46,328.65c-0.43,0-0.78-0.35-0.78-0.78v-5.17
				c0-0.43,0.35-0.77,0.78-0.77c0.43,0,0.78,0.35,0.78,0.77v5.17C432.24,328.31,431.89,328.65,431.46,328.65z M431.46,318.32
				c-0.43,0-0.78-0.35-0.78-0.77v-5.17c0-0.43,0.35-0.78,0.78-0.78c0.43,0,0.78,0.35,0.78,0.78v5.17
				C432.24,317.97,431.89,318.32,431.46,318.32z M431.46,307.98c-0.43,0-0.78-0.35-0.78-0.77v-5.17c0-0.43,0.35-0.77,0.78-0.77
				c0.43,0,0.78,0.35,0.78,0.77v5.17C432.24,307.64,431.89,307.98,431.46,307.98z"/>
		</g>
		<g>
			<path class="st3" d="M431.46,297.63c-0.43,0-0.78-0.35-0.78-0.77v-1.81h-0.65c-0.43,0-0.77-0.35-0.77-0.78
				c0-0.43,0.35-0.77,0.77-0.77h1.42c0.43,0,0.78,0.35,0.78,0.77v2.58C432.24,297.28,431.89,297.63,431.46,297.63z"/>
		</g>
	</g>
	<g>
		<path class="st3" d="M407.41,215.99h-67.8c-4.08,0-7.38,3.3-7.38,7.38v140.91c0,4.08,3.3,7.38,7.38,7.38h67.8
			c4.08,0,7.38-3.3,7.38-7.38V223.38C414.79,219.3,411.49,215.99,407.41,215.99z"/>
		<g>
			<path class="st10" d="M388.67,224.11h-37.3c-0.65,0-1.17-0.52-1.17-1.17v-0.15c0-0.65,0.52-1.17,1.17-1.17h37.3
				c0.65,0,1.17,0.52,1.17,1.17v0.15C389.84,223.59,389.32,224.11,388.67,224.11z"/>
			<path class="st10" d="M396.82,222.87c0,0.69-0.56,1.25-1.25,1.25c-0.69,0-1.25-0.56-1.25-1.25c0-0.69,0.56-1.25,1.25-1.25
				C396.26,221.62,396.82,222.18,396.82,222.87z"/>
		</g>
		<rect x="336.77" y="230.13" class="st11" width="73.47" height="45.15"/>
		<polygon class="st5" points="387.45,249 382.06,255.44 368.12,238.77 344.82,266.65 372.7,266.65 391.43,266.65 402.2,266.65 		
			"/>
		<g>
			<rect x="336.77" y="335.08" class="st11" width="34.69" height="20.35"/>
			<polygon class="st5" points="360.7,342.99 358.15,346.03 351.57,338.16 340.57,351.32 353.73,351.32 362.58,351.32 
				367.66,351.32 			"/>
		</g>
		<g>
			<g>
				<g>
					<g>
						<rect x="336.77" y="286.89" class="st3" width="34.69" height="1.95"/>
					</g>
				</g>
				<g>
					<rect x="336.77" y="282.81" class="st3" width="34.69" height="1.95"/>
				</g>
				<g>
					<g>
						<rect x="336.77" y="290.88" class="st3" width="21.93" height="1.95"/>
					</g>
				</g>
				<g>
					<g>
						<rect x="360.26" y="290.88" class="st3" width="11.2" height="1.95"/>
					</g>
				</g>
				<g>
					<g>
						<rect x="336.77" y="294.87" class="st3" width="30.69" height="1.95"/>
					</g>
				</g>
				<g>
					<g>
						<rect x="336.77" y="298.96" class="st3" width="10.66" height="1.95"/>
					</g>
				</g>
				<g>
					<g>
						<rect x="349.27" y="298.96" class="st3" width="7.68" height="1.95"/>
					</g>
				</g>
			</g>
		</g>
		<g>
			<g>
				<g>
					<g>
						<rect x="375.56" y="314.19" class="st3" width="34.69" height="1.95"/>
					</g>
				</g>
				<g>
					<rect x="375.56" y="310.1" class="st3" width="34.69" height="1.95"/>
				</g>
				<g>
					<g>
						<rect x="375.56" y="318.18" class="st3" width="21.93" height="1.95"/>
					</g>
				</g>
				<g>
					<g>
						<rect x="399.05" y="318.18" class="st3" width="11.2" height="1.95"/>
					</g>
				</g>
				<g>
					<g>
						<rect x="375.56" y="322.16" class="st3" width="30.69" height="1.95"/>
					</g>
				</g>
				<g>
					<g>
						<rect x="375.56" y="326.26" class="st3" width="10.66" height="1.95"/>
					</g>
				</g>
				<g>
					<g>
						<rect x="388.05" y="326.26" class="st3" width="7.68" height="1.95"/>
					</g>
				</g>
			</g>
		</g>
		<g>
			<g>
				<g>
					<g>
						<rect x="375.56" y="286.89" class="st3" width="34.69" height="1.95"/>
					</g>
				</g>
				<g>
					<rect x="375.56" y="282.81" class="st3" width="34.69" height="1.95"/>
				</g>
				<g>
					<g>
						<rect x="375.56" y="290.88" class="st3" width="21.93" height="1.95"/>
					</g>
				</g>
				<g>
					<g>
						<rect x="399.05" y="290.88" class="st3" width="11.2" height="1.95"/>
					</g>
				</g>
				<g>
					<g>
						<rect x="375.56" y="294.87" class="st3" width="34.69" height="1.95"/>
					</g>
				</g>
				<g>
					<g>
						<rect x="375.56" y="298.96" class="st3" width="10.66" height="1.95"/>
					</g>
				</g>
				<g>
					<g>
						<rect x="388.05" y="298.96" class="st3" width="22.19" height="1.95"/>
					</g>
				</g>
			</g>
		</g>
		<g>
			<g>
				<g>
					<g>
						<rect x="336.77" y="314.19" class="st3" width="34.69" height="1.95"/>
					</g>
				</g>
				<g>
					<rect x="336.77" y="310.1" class="st3" width="34.69" height="1.95"/>
				</g>
				<g>
					<g>
						<rect x="336.77" y="318.18" class="st3" width="34.69" height="1.95"/>
					</g>
				</g>
				<g>
					<g>
						<rect x="336.77" y="322.16" class="st3" width="34.69" height="1.95"/>
					</g>
				</g>
				<g>
					<g>
						<rect x="336.77" y="326.26" class="st3" width="34.69" height="1.95"/>
					</g>
				</g>
			</g>
		</g>
		<g>
			<g>
				<g>
					<g>
						<rect x="375.56" y="339.83" class="st3" width="34.69" height="1.95"/>
					</g>
				</g>
				<g>
					<rect x="375.56" y="335.75" class="st3" width="34.69" height="1.95"/>
				</g>
				<g>
					<g>
						<rect x="388.31" y="343.82" class="st3" width="21.93" height="1.95"/>
					</g>
				</g>
				<g>
					<g>
						<rect x="375.56" y="343.82" class="st3" width="11.2" height="1.95"/>
					</g>
				</g>
				<g>
					<g>
						<rect x="375.56" y="347.81" class="st3" width="26.64" height="1.95"/>
					</g>
				</g>
				<g>
					<g>
						<rect x="404.04" y="347.81" class="st3" width="6.2" height="1.95"/>
					</g>
				</g>
				<g>
					<g>
						<rect x="384.66" y="351.9" class="st3" width="25.59" height="1.95"/>
					</g>
				</g>
				<g>
					<g>
						<rect x="375.56" y="351.9" class="st3" width="7.68" height="1.95"/>
					</g>
				</g>
			</g>
		</g>
	</g>
	<g>
		<path class="st9" d="M348.65,407.86h-54.24c-5.02,0-9.08-4.07-9.08-9.08v-18.04c0-5.02,4.07-9.08,9.08-9.08h54.24
			c5.02,0,9.08,4.07,9.08,9.08v18.04C357.73,403.8,353.67,407.86,348.65,407.86z"/>
	</g>
	<g>
		<g>
			<g>
				<path class="st3" d="M434.26,347.83c0,1.86-1.51,3.38-3.38,3.38c-1.87,0-3.38-1.51-3.38-3.38c0-1.87,1.51-3.38,3.38-3.38
					C432.75,344.45,434.26,345.96,434.26,347.83z"/>
			</g>
			<g>
				<path class="st3" d="M430.88,354.15c-3.49,0-6.33-2.84-6.33-6.33c0-3.49,2.84-6.33,6.33-6.33c3.49,0,6.33,2.84,6.33,6.33
					C437.21,351.32,434.37,354.15,430.88,354.15z M430.88,342.27c-3.06,0-5.55,2.49-5.55,5.55s2.49,5.55,5.55,5.55
					c3.06,0,5.55-2.49,5.55-5.55S433.94,342.27,430.88,342.27z"/>
			</g>
		</g>
	</g>
	<g>
		<path class="st9" d="M460.02,298.27h-54.24c-5.02,0-9.08-4.07-9.08-9.08v-18.04c0-5.02,4.07-9.08,9.08-9.08h54.24
			c5.02,0,9.08,4.07,9.08,9.08v18.04C469.11,294.21,465.04,298.27,460.02,298.27z"/>
	</g>
	<g>
		<g>
			<g>
				<rect x="242.53" y="304.9" class="st10" width="22.78" height="2.07"/>
			</g>
			<g>
				<rect x="271.15" y="304.9" class="st10" width="52.76" height="2.07"/>
			</g>
			<g>
				<path class="st10" d="M296.87,322.69c-9.06,0-18.13-0.01-27.17-0.03l0-2.07c18.07,0.04,36.3,0.04,54.2,0l0.01,2.07
					C314.96,322.68,305.93,322.69,296.87,322.69z"/>
			</g>
			<g>
				<rect x="261.4" y="312.74" class="st10" width="62.5" height="2.07"/>
			</g>
			<g>
				<rect x="258" y="328.46" class="st10" width="65.91" height="2.07"/>
			</g>
			<g>
				<rect x="248.86" y="336.31" class="st10" width="75.05" height="2.07"/>
			</g>
		</g>
		<g>
			<g>
				<rect x="119.4" y="186.72" class="st3" width="35.28" height="2.07"/>
			</g>
			<g>
				<rect x="200.28" y="186.72" class="st3" width="36.41" height="2.07"/>
			</g>
			<g>
				<g>
					<g>
						<rect x="211.44" y="194.56" class="st5" width="25.26" height="2.07"/>
					</g>
				</g>
			</g>
			<g>
				<g>
					<g>
						<rect x="201.05" y="210.28" class="st5" width="35.65" height="2.07"/>
					</g>
				</g>
			</g>
			<g>
				<g>
					<g>
						<rect x="194.07" y="218.12" class="st5" width="42.63" height="2.07"/>
					</g>
				</g>
			</g>
			<g>
				<g>
					<g>
						<rect x="181.86" y="227.29" class="st5" width="54.83" height="2.07"/>
					</g>
				</g>
			</g>
			<g>
				<rect x="160.41" y="186.72" class="st5" width="35.28" height="2.07"/>
			</g>
			<g>
				<g>
					<g>
						<path class="st5" d="M208.21,204.5c-5.39,0-10.8-0.01-21.62-0.02l-7.03-0.01l0-2.07l7.03,0.01c21.63,0.03,21.63,0.03,43.11,0
							l6.99-0.01v2.07l-6.98,0.01C218.97,204.49,213.6,204.5,208.21,204.5z"/>
					</g>
				</g>
			</g>
			<g>
				<path class="st3" d="M146.44,204.5c-9.06,0-18.09-0.01-27.04-0.03l0-2.07c17.9,0.04,36.13,0.04,54.2,0l0,2.07
					C164.57,204.49,155.5,204.5,146.44,204.5z"/>
			</g>
			<g>
				<rect x="119.4" y="194.56" class="st3" width="87.03" height="2.07"/>
			</g>
			<g>
				<rect x="119.4" y="227.29" class="st3" width="57.63" height="2.07"/>
			</g>
			<g>
				<rect x="119.4" y="210.28" class="st3" width="77.15" height="2.07"/>
			</g>
			<g>
				<rect x="119.4" y="218.12" class="st3" width="69.92" height="2.07"/>
			</g>
			<g>
				<g>
					<g>
						<circle class="st7" cx="112.02" cy="187.75" r="1.43"/>
					</g>
					<g>
						<path class="st7" d="M113.44,195.59c0,0.79-0.64,1.43-1.43,1.43c-0.79,0-1.43-0.64-1.43-1.43c0-0.79,0.64-1.43,1.43-1.43
							C112.8,194.17,113.44,194.81,113.44,195.59z"/>
					</g>
					<g>
						<circle class="st7" cx="112.02" cy="203.44" r="1.43"/>
					</g>
					<g>
						<path class="st7" d="M113.44,211.28c0,0.79-0.64,1.43-1.43,1.43c-0.79,0-1.43-0.64-1.43-1.43c0-0.79,0.64-1.43,1.43-1.43
							C112.8,209.85,113.44,210.49,113.44,211.28z"/>
					</g>
					<g>
						<circle class="st7" cx="112.02" cy="219.15" r="1.43"/>
					</g>
					<g>
						<path class="st7" d="M113.44,228.32c0,0.79-0.64,1.43-1.43,1.43c-0.79,0-1.43-0.64-1.43-1.43s0.64-1.43,1.43-1.43
							C112.8,226.9,113.44,227.54,113.44,228.32z"/>
					</g>
				</g>
			</g>
			<g>
				<path class="st7" d="M246.1,233c-0.29,0-0.52-0.23-0.52-0.52v-45.89c0-0.29,0.23-0.52,0.52-0.52s0.52,0.23,0.52,0.52v45.89
					C246.62,232.77,246.39,233,246.1,233z"/>
			</g>
		</g>
		<g>
			<g>
				<path class="st10" d="M158.14,331.99h-3.18c-0.29,0-0.53-0.24-0.53-0.53c0-0.29,0.24-0.53,0.53-0.53h3.18
					c0.29,0,0.53,0.24,0.53,0.53C158.67,331.75,158.43,331.99,158.14,331.99z M151.78,331.99h-3.18c-0.29,0-0.53-0.24-0.53-0.53
					c0-0.29,0.24-0.53,0.53-0.53h3.18c0.29,0,0.53,0.24,0.53,0.53C152.31,331.75,152.08,331.99,151.78,331.99z M145.43,331.99h-1.29
					c-0.72,0-1.44-0.18-2.07-0.53c-0.26-0.14-0.35-0.46-0.21-0.72c0.14-0.26,0.47-0.35,0.72-0.21c0.47,0.26,1.01,0.4,1.55,0.4h1.29
					c0.29,0,0.53,0.24,0.53,0.53C145.96,331.75,145.72,331.99,145.43,331.99z M140.49,329.05c-0.24,0-0.46-0.17-0.52-0.42
					c-0.07-0.3-0.1-0.61-0.1-0.91v-2.37c0-0.29,0.24-0.53,0.53-0.53s0.53,0.24,0.53,0.53v2.37c0,0.23,0.02,0.46,0.07,0.69
					c0.06,0.29-0.12,0.57-0.4,0.63C140.57,329.04,140.53,329.05,140.49,329.05z M140.41,322.7c-0.29,0-0.53-0.24-0.53-0.53V319
					c0-0.29,0.24-0.53,0.53-0.53s0.53,0.24,0.53,0.53v3.18C140.94,322.46,140.7,322.7,140.41,322.7z M140.41,316.35
					c-0.29,0-0.53-0.24-0.53-0.53v-3.18c0-0.29,0.24-0.53,0.53-0.53s0.53,0.24,0.53,0.53v3.18
					C140.94,316.11,140.7,316.35,140.41,316.35z M140.41,310c-0.29,0-0.53-0.24-0.53-0.53v-3.18c0-0.29,0.24-0.53,0.53-0.53
					s0.53,0.24,0.53,0.53v3.18C140.94,309.76,140.7,310,140.41,310z M140.41,303.64c-0.29,0-0.53-0.24-0.53-0.53v-0.39
					c0-1.08,0.4-2.11,1.13-2.9c0.2-0.21,0.53-0.23,0.75-0.03c0.21,0.2,0.23,0.53,0.03,0.75c-0.55,0.59-0.85,1.37-0.85,2.18v0.39
					C140.94,303.41,140.7,303.64,140.41,303.64z M160.12,299.52h-3.18c-0.29,0-0.53-0.24-0.53-0.53s0.24-0.53,0.53-0.53h3.18
					c0.29,0,0.53,0.24,0.53,0.53S160.41,299.52,160.12,299.52z M153.77,299.52h-3.18c-0.29,0-0.53-0.24-0.53-0.53
					s0.24-0.53,0.53-0.53h3.18c0.29,0,0.53,0.24,0.53,0.53S154.06,299.52,153.77,299.52z M147.42,299.52h-3.18
					c-0.29,0-0.53-0.24-0.53-0.53s0.24-0.53,0.53-0.53h3.18c0.29,0,0.53,0.24,0.53,0.53S147.71,299.52,147.42,299.52z"/>
			</g>
			<g>
				<rect x="152.65" y="318.24" class="st10" width="17.01" height="2.12"/>
			</g>
			<g>
				<rect x="174.11" y="318.24" class="st10" width="27.47" height="2.12"/>
			</g>
			<g>
				<rect x="184.58" y="336.25" class="st10" width="17" height="2.12"/>
			</g>
			<g>
				<rect x="152.65" y="336.25" class="st10" width="27.47" height="2.12"/>
			</g>
			<g>
				<rect x="152.65" y="324.37" class="st10" width="29.91" height="2.12"/>
			</g>
			<g>
				<rect x="187.01" y="324.37" class="st10" width="14.57" height="2.12"/>
			</g>
			<g>
				<rect x="152.65" y="330.4" class="st10" width="24.61" height="2.12"/>
			</g>
			<g>
				<rect x="184.88" y="330.4" class="st10" width="16.7" height="2.12"/>
			</g>
			<g>
				<g>
					<rect x="152.65" y="292.65" class="st5" width="8.9" height="16.58"/>
				</g>
				<g>
					<g>
						<rect x="166.62" y="286.36" class="st7" width="8.9" height="22.87"/>
					</g>
				</g>
				<g>
					<rect x="180.13" y="273.32" class="st9" width="8.9" height="35.91"/>
				</g>
			</g>
			<g>
				<rect x="179.62" y="330.4" class="st10" width="3.2" height="2.12"/>
			</g>
		</g>
		<g>
			<rect x="256.47" y="217.05" class="st3" width="66.64" height="74.35"/>
			<g>
				<g>
					<rect x="261.85" y="230.27" class="st11" width="46.47" height="1.55"/>
				</g>
				<g>
					<path class="st11" d="M285.03,243.1c-7.98,0-15.94-0.01-23.19-0.03l0-1.55c14.48,0.04,31.85,0.04,46.46,0l0,1.55
						C301.01,243.09,293.01,243.1,285.03,243.1z"/>
				</g>
				<g>
					<rect x="261.85" y="235.89" class="st11" width="46.47" height="1.55"/>
				</g>
				<g>
					<rect x="261.85" y="247.18" class="st11" width="33.87" height="1.55"/>
				</g>
				<g>
					<rect x="261.85" y="285.06" class="st11" width="46.47" height="1.55"/>
				</g>
				<g>
					<path class="st11" d="M308.31,275.36c-14.61-0.03-31.98-0.03-46.46,0l0-1.55c14.48-0.03,31.85-0.03,46.47,0L308.31,275.36z"/>
				</g>
				<g>
					<rect x="261.85" y="279.43" class="st11" width="46.47" height="1.55"/>
				</g>
				<g>
					<rect x="261.85" y="268.15" class="st11" width="33.87" height="1.55"/>
				</g>
			</g>
			<g>
				<path class="st9" d="M324.14,292.43h-68.71v-76.44h68.71V292.43z M256.47,291.4h66.64v-74.37h-66.64V291.4z"/>
			</g>
			<g>
				<g>
					<rect x="255.95" y="216.51" class="st9" width="67.67" height="8.91"/>
				</g>
			</g>
			<g>
				<g>
					<path class="st11" d="M304.3,264.19c-0.18,0-0.37-0.06-0.51-0.19l-5.21-4.6c-0.17-0.15-0.26-0.36-0.26-0.58
						c0-0.22,0.09-0.43,0.26-0.58l5.21-4.6c0.32-0.28,0.81-0.25,1.09,0.07c0.28,0.32,0.25,0.81-0.07,1.09l-4.55,4.02l4.55,4.02
						c0.32,0.28,0.35,0.77,0.07,1.09C304.73,264.1,304.51,264.19,304.3,264.19z"/>
				</g>
				<g>
					<path class="st11" d="M312.33,264.19c-0.21,0-0.43-0.09-0.58-0.26c-0.28-0.32-0.25-0.81,0.07-1.09l4.55-4.02l-4.55-4.02
						c-0.32-0.28-0.35-0.77-0.07-1.09c0.28-0.32,0.77-0.35,1.09-0.07l5.21,4.6c0.17,0.15,0.26,0.36,0.26,0.58
						c0,0.22-0.09,0.43-0.26,0.58l-5.21,4.6C312.7,264.13,312.51,264.19,312.33,264.19z"/>
				</g>
			</g>
			<g>
				<g>
					<g>
						<path class="st11" d="M262.36,220.96l1.81-1.81c0.17-0.17,0.17-0.45,0-0.62c-0.17-0.17-0.45-0.17-0.62,0l-1.81,1.81
							l-1.81-1.81c-0.17-0.17-0.45-0.17-0.62,0c-0.17,0.17-0.17,0.45,0,0.62l1.81,1.81l-1.81,1.81c-0.17,0.17-0.17,0.45,0,0.62
							c0.09,0.09,0.2,0.13,0.31,0.13c0.11,0,0.22-0.04,0.31-0.13l1.81-1.81l1.81,1.81c0.09,0.09,0.2,0.13,0.31,0.13
							c0.11,0,0.22-0.04,0.31-0.13c0.17-0.17,0.17-0.45,0-0.62L262.36,220.96z"/>
					</g>
				</g>
				<g>
					<g>
						<path class="st11" d="M270.1,223.52c-1.41,0-2.55-1.14-2.55-2.55c0-1.41,1.14-2.55,2.55-2.55c1.41,0,2.55,1.14,2.55,2.55
							C272.65,222.37,271.51,223.52,270.1,223.52z M270.1,219.23c-0.96,0-1.73,0.78-1.73,1.73c0,0.96,0.78,1.73,1.73,1.73
							s1.73-0.78,1.73-1.73C271.84,220.01,271.06,219.23,270.1,219.23z"/>
					</g>
				</g>
				<g>
					<g>
						<path class="st11" d="M279.97,223.52h-4.16c-0.24,0-0.44-0.2-0.44-0.44c0-0.24,0.2-0.44,0.44-0.44h4.16
							c0.24,0,0.44,0.2,0.44,0.44C280.41,223.32,280.22,223.52,279.97,223.52z"/>
					</g>
				</g>
			</g>
		</g>
	</g>
	<path class="st10" d="M235.17,116.96l-6.02,1.9c-0.2,0.06-0.39,0.15-0.57,0.24c-1.81-3.12-4.14-5.83-6.83-8.07
		c0.13-0.17,0.24-0.34,0.34-0.53l2.88-5.62c0.9-1.75,0.21-3.9-1.54-4.8l-5.62-2.88c-1.75-0.9-3.9-0.21-4.8,1.54l-2.88,5.62
		c-0.1,0.19-0.17,0.38-0.23,0.58c-3.29-0.86-6.76-1.17-10.25-0.87c-0.03-0.2-0.07-0.4-0.13-0.6l-1.9-6.02
		c-0.59-1.87-2.6-2.91-4.47-2.32l-6.02,1.9c-1.87,0.59-2.91,2.6-2.32,4.47l1.9,6.02c0.06,0.2,0.15,0.39,0.24,0.57
		c-3.12,1.81-5.83,4.14-8.07,6.83c-0.17-0.13-0.34-0.24-0.53-0.34l-5.62-2.88c-0.84-0.43-1.8-0.51-2.7-0.23
		c-0.01,0-0.01,0-0.02,0.01c-0.91,0.29-1.64,0.92-2.08,1.76l-2.88,5.62l0,0c-0.9,1.75-0.21,3.9,1.54,4.8l5.62,2.88
		c0.19,0.1,0.39,0.17,0.58,0.23c-0.86,3.3-1.17,6.76-0.87,10.25c-0.2,0.03-0.4,0.07-0.6,0.13l-6.02,1.9
		c-1.87,0.59-2.91,2.6-2.32,4.47l1.9,6.02c0.59,1.87,2.6,2.91,4.47,2.32l6.02-1.9c0.2-0.06,0.39-0.15,0.57-0.24
		c1.81,3.12,4.14,5.83,6.83,8.07c-0.13,0.16-0.24,0.34-0.34,0.53l-2.88,5.62c-0.43,0.85-0.51,1.81-0.22,2.72
		c0.29,0.91,0.92,1.64,1.76,2.08l5.62,2.88l0,0c0.87,0.45,1.84,0.5,2.7,0.23c0.88-0.28,1.64-0.89,2.1-1.77l2.88-5.62
		c0.1-0.19,0.17-0.39,0.23-0.58c3.3,0.86,6.76,1.17,10.25,0.87c0.03,0.2,0.07,0.4,0.13,0.6l1.9,6.02c0.59,1.87,2.6,2.91,4.47,2.32
		l6.02-1.9c1.87-0.59,2.91-2.6,2.32-4.47l-1.9-6.02c-0.06-0.2-0.15-0.39-0.24-0.57c3.12-1.81,5.83-4.14,8.07-6.83
		c0.16,0.13,0.34,0.24,0.53,0.34l5.62,2.88c0.87,0.45,1.84,0.5,2.7,0.23c0.88-0.28,1.64-0.89,2.09-1.77l2.88-5.62
		c0.9-1.75,0.21-3.9-1.54-4.8l-5.62-2.88c-0.19-0.1-0.38-0.17-0.58-0.23c0.86-3.29,1.17-6.75,0.87-10.25c0.2-0.03,0.4-0.07,0.6-0.13
		l6.02-1.9c1.87-0.59,2.91-2.6,2.32-4.47l-1.9-6.02C239.05,117.41,237.04,116.36,235.17,116.96z M207.32,150.36
		c-8.8,2.78-18.21-2.11-21-10.9c-2.78-8.8,2.11-18.21,10.91-21c8.79-2.78,18.21,2.11,21,10.91
		C221,138.16,216.11,147.58,207.32,150.36z"/>
	<g>
		<path class="st3" d="M227.57,256.67l-1.46,3.58c-0.05,0.12-0.08,0.24-0.11,0.36c-2.18-0.37-4.37-0.34-6.48,0.06
			c-0.03-0.12-0.06-0.25-0.12-0.37l-1.52-3.56c-0.47-1.11-1.76-1.63-2.86-1.15l-3.56,1.52c-1.11,0.47-1.63,1.76-1.15,2.86l1.52,3.56
			c0.05,0.12,0.11,0.23,0.18,0.34c-1.7,1.22-3.2,2.72-4.43,4.49c-0.11-0.07-0.22-0.13-0.34-0.17l-3.58-1.46
			c-1.11-0.46-2.39,0.08-2.85,1.2l-1.46,3.58c-0.46,1.11,0.08,2.39,1.2,2.85l3.58,1.46c0.12,0.05,0.24,0.08,0.36,0.11
			c-0.37,2.18-0.34,4.37,0.06,6.48c-0.12,0.03-0.25,0.06-0.37,0.12l-3.56,1.52c-0.53,0.23-0.95,0.65-1.17,1.18c0,0,0,0.01,0,0.01
			c-0.22,0.54-0.21,1.13,0.02,1.67l1.52,3.56l0,0c0.47,1.11,1.76,1.63,2.86,1.15l3.56-1.52c0.12-0.05,0.23-0.12,0.34-0.19
			c1.22,1.7,2.72,3.2,4.49,4.43c-0.07,0.11-0.13,0.22-0.17,0.34l-1.46,3.58c-0.46,1.11,0.08,2.39,1.2,2.85l3.58,1.46
			c1.11,0.46,2.39-0.08,2.85-1.2l1.46-3.58c0.05-0.12,0.08-0.24,0.11-0.36c2.18,0.37,4.37,0.34,6.48-0.06
			c0.03,0.12,0.06,0.25,0.11,0.37l1.52,3.56c0.23,0.54,0.65,0.95,1.19,1.17c0.54,0.22,1.13,0.21,1.67-0.02l3.56-1.52l0,0
			c0.55-0.23,0.95-0.67,1.17-1.18c0.21-0.52,0.23-1.12-0.01-1.68l-1.52-3.56c-0.05-0.12-0.12-0.23-0.19-0.34
			c1.7-1.22,3.2-2.72,4.43-4.49c0.11,0.07,0.22,0.13,0.34,0.17l3.58,1.46c1.11,0.46,2.39-0.08,2.85-1.2l1.46-3.58
			c0.46-1.11-0.08-2.39-1.2-2.85l-3.58-1.46c-0.12-0.05-0.24-0.08-0.36-0.11c0.37-2.18,0.34-4.37-0.06-6.48
			c0.12-0.03,0.25-0.06,0.37-0.11l3.56-1.52c0.55-0.23,0.96-0.67,1.17-1.18c0.21-0.52,0.23-1.12-0.01-1.68l-1.52-3.56
			c-0.47-1.11-1.76-1.63-2.86-1.15l-3.56,1.52c-0.12,0.05-0.23,0.11-0.34,0.18c-1.22-1.7-2.72-3.2-4.49-4.43
			c0.07-0.11,0.13-0.22,0.17-0.34l1.46-3.58c0.46-1.11-0.08-2.39-1.2-2.85l-3.58-1.46C229.3,255.02,228.03,255.56,227.57,256.67z
			 M232.39,282.9c-2.14,5.24-8.14,7.76-13.37,5.62c-5.24-2.14-7.76-8.14-5.62-13.37c2.14-5.24,8.14-7.76,13.37-5.62
			C232.01,271.66,234.53,277.66,232.39,282.9z"/>
		<path class="st12" d="M203.85,238.49l-1.9,1.93c-0.06,0.06-0.12,0.13-0.17,0.21c-1.31-0.82-2.74-1.38-4.21-1.69
			c0.01-0.09,0.02-0.18,0.02-0.27l-0.03-2.71c-0.01-0.84-0.7-1.52-1.55-1.51l-2.71,0.03c-0.84,0.01-1.52,0.7-1.51,1.55l0.03,2.71
			c0,0.09,0.01,0.18,0.03,0.27c-1.42,0.33-2.8,0.91-4.07,1.72c-0.05-0.07-0.11-0.14-0.17-0.2l-1.93-1.9
			c-0.6-0.59-1.57-0.59-2.16,0.01l-1.9,1.93c-0.59,0.6-0.59,1.57,0.01,2.16l1.93,1.9c0.06,0.06,0.13,0.12,0.21,0.17
			c-0.82,1.31-1.38,2.74-1.69,4.21c-0.09-0.01-0.18-0.02-0.27-0.02l-2.71,0.03c-0.41,0-0.79,0.17-1.07,0.45c0,0,0,0-0.01,0.01
			c-0.29,0.29-0.44,0.68-0.44,1.09l0.03,2.71l0,0c0.01,0.84,0.7,1.52,1.55,1.51l2.71-0.03c0.09,0,0.18-0.01,0.27-0.03
			c0.33,1.42,0.91,2.8,1.72,4.07c-0.07,0.05-0.14,0.11-0.2,0.17l-1.9,1.93c-0.59,0.6-0.59,1.57,0.01,2.16l1.93,1.9
			c0.6,0.59,1.57,0.59,2.16-0.01l1.9-1.93c0.06-0.06,0.12-0.13,0.17-0.2c1.31,0.82,2.74,1.38,4.21,1.69
			c-0.01,0.09-0.03,0.18-0.02,0.27l0.03,2.71c0,0.41,0.17,0.79,0.46,1.08c0.29,0.29,0.68,0.44,1.09,0.44l2.71-0.03l0,0
			c0.42,0,0.8-0.18,1.07-0.46c0.28-0.28,0.45-0.67,0.44-1.09l-0.03-2.71c0-0.09-0.01-0.18-0.03-0.27c1.42-0.33,2.8-0.91,4.07-1.72
			c0.05,0.07,0.11,0.14,0.17,0.2l1.93,1.9c0.6,0.59,1.57,0.59,2.16-0.01l1.9-1.93c0.59-0.6,0.59-1.57-0.01-2.16l-1.93-1.9
			c-0.06-0.06-0.13-0.12-0.21-0.17c0.82-1.31,1.38-2.74,1.69-4.21c0.09,0.01,0.18,0.03,0.27,0.02l2.71-0.03
			c0.42,0,0.8-0.18,1.07-0.46c0.28-0.28,0.45-0.67,0.44-1.09l-0.03-2.71c-0.01-0.84-0.7-1.52-1.55-1.51l-2.71,0.03
			c-0.09,0-0.18,0.01-0.27,0.03c-0.33-1.42-0.91-2.8-1.72-4.07c0.07-0.05,0.14-0.11,0.2-0.17l1.9-1.93c0.59-0.6,0.59-1.57-0.01-2.16
			l-1.93-1.9C205.41,237.88,204.44,237.89,203.85,238.49z M199.96,256.76c-2.78,2.82-7.34,2.85-10.16,0.07
			c-2.82-2.78-2.85-7.34-0.07-10.16c2.78-2.82,7.34-2.85,10.16-0.07C202.72,249.38,202.75,253.94,199.96,256.76z"/>
	</g>
	<g>
		<g>
			<g>
				<rect x="39.25" y="213.29" class="st10" width="12.36" height="2.07"/>
			</g>
			<g>
				<rect x="56.71" y="213.29" class="st10" width="31.51" height="2.07"/>
			</g>
			<g>
				<rect x="68.72" y="235.48" class="st10" width="19.51" height="2.07"/>
			</g>
			<g>
				<rect x="39.25" y="235.48" class="st10" width="24.36" height="2.07"/>
			</g>
			<g>
				<rect x="39.25" y="220.85" class="st10" width="27.16" height="2.07"/>
			</g>
			<g>
				<rect x="71.51" y="220.85" class="st10" width="16.71" height="2.07"/>
			</g>
			<g>
				<rect x="39.25" y="228.27" class="st10" width="21.08" height="2.07"/>
			</g>
			<g>
				<rect x="69.07" y="228.27" class="st10" width="19.16" height="2.07"/>
			</g>
			<g>
				<rect x="63.03" y="228.27" class="st10" width="3.67" height="2.07"/>
			</g>
		</g>
		<g>
			<g>
				<rect x="364.88" y="406.85" class="st10" width="12.36" height="2.07"/>
			</g>
			<g>
				<rect x="382.34" y="406.85" class="st10" width="31.51" height="2.07"/>
			</g>
			<g>
				<rect x="394.34" y="429.04" class="st10" width="19.51" height="2.07"/>
			</g>
			<g>
				<rect x="364.88" y="429.04" class="st10" width="24.36" height="2.07"/>
			</g>
			<g>
				<rect x="364.88" y="414.4" class="st10" width="27.16" height="2.07"/>
			</g>
			<g>
				<rect x="397.14" y="414.4" class="st10" width="16.71" height="2.07"/>
			</g>
			<g>
				<rect x="364.88" y="421.82" class="st10" width="21.08" height="2.07"/>
			</g>
			<g>
				<rect x="394.69" y="421.82" class="st10" width="19.16" height="2.07"/>
			</g>
			<g>
				<rect x="388.66" y="421.82" class="st10" width="3.67" height="2.07"/>
			</g>
		</g>
	</g>
	<path class="st10" d="M405.94,151.79l-4.85,1.04c-0.16,0.03-0.32,0.09-0.46,0.14c-1.19-2.57-2.8-4.87-4.74-6.82
		c0.11-0.12,0.22-0.25,0.31-0.39l2.68-4.18c0.83-1.3,0.45-3.04-0.85-3.87l-4.18-2.68c-1.3-0.83-3.04-0.45-3.87,0.85l-2.68,4.18
		c-0.09,0.14-0.16,0.29-0.22,0.44c-2.51-0.92-5.2-1.42-7.95-1.45c-0.01-0.16-0.02-0.32-0.06-0.48l-1.04-4.85
		c-0.32-1.51-1.81-2.48-3.32-2.15l-4.85,1.04c-1.51,0.32-2.48,1.81-2.15,3.32l1.04,4.85c0.03,0.16,0.09,0.32,0.14,0.46
		c-2.57,1.18-4.87,2.8-6.82,4.74c-0.12-0.11-0.25-0.22-0.39-0.31l-4.18-2.68c-0.63-0.4-1.37-0.54-2.1-0.38c0,0-0.01,0-0.01,0
		c-0.73,0.16-1.36,0.6-1.76,1.22l-2.68,4.18h0c-0.83,1.3-0.45,3.04,0.85,3.87l4.18,2.68c0.14,0.09,0.29,0.16,0.44,0.22
		c-0.92,2.51-1.43,5.2-1.45,7.96c-0.16,0.01-0.32,0.02-0.48,0.06l-4.85,1.04c-1.51,0.32-2.48,1.81-2.15,3.32l1.04,4.85
		c0.32,1.51,1.81,2.48,3.32,2.15l4.85-1.04c0.16-0.03,0.32-0.08,0.46-0.14c1.19,2.57,2.8,4.87,4.74,6.82
		c-0.11,0.12-0.22,0.25-0.31,0.39l-2.68,4.18c-0.4,0.63-0.54,1.38-0.38,2.11c0.16,0.73,0.6,1.36,1.22,1.76l4.18,2.68l0,0
		c0.65,0.41,1.4,0.53,2.1,0.38c0.71-0.15,1.35-0.57,1.77-1.23l2.68-4.18c0.09-0.14,0.16-0.29,0.22-0.44
		c2.51,0.92,5.2,1.43,7.96,1.45c0.01,0.16,0.02,0.32,0.06,0.48l1.04,4.85c0.32,1.51,1.81,2.48,3.32,2.15l4.85-1.04
		c1.51-0.32,2.48-1.81,2.15-3.32l-1.04-4.85c-0.03-0.16-0.09-0.32-0.15-0.46c2.57-1.19,4.87-2.8,6.82-4.74
		c0.12,0.11,0.25,0.22,0.39,0.31l4.18,2.68c0.65,0.41,1.4,0.53,2.1,0.38c0.71-0.15,1.35-0.57,1.77-1.23l2.68-4.18
		c0.83-1.3,0.45-3.04-0.85-3.87l-4.18-2.68c-0.14-0.09-0.29-0.16-0.44-0.22c0.92-2.51,1.42-5.2,1.45-7.95
		c0.16-0.01,0.32-0.02,0.48-0.06l4.85-1.04c1.51-0.32,2.48-1.81,2.15-3.32l-1.04-4.85C408.94,152.43,407.45,151.47,405.94,151.79z
		 M381.64,175.84c-7.09,1.52-14.09-3.02-15.61-10.11c-1.52-7.09,3.02-14.09,10.11-15.61c7.09-1.52,14.09,3.02,15.61,10.11
		C393.27,167.32,388.73,174.33,381.64,175.84z"/>
</g>
<g id="TEXTS">
	<g>
		<text transform="matrix(1 0 0 1 285.2305 160.5649)" class="st11 st13 st14">&lt;/&gt;</text>
	</g>
	<g>
		<text transform="matrix(1 0 0 1 77.1318 418.2392)" class="st11 st13 st15">html</text>
	</g>
	<g>
		<text transform="matrix(1 0 0 1 119.415 265.9365)" class="st11 st13 st16">js</text>
	</g>
	<g>
		<text transform="matrix(1 0 0 1 300.2344 396.8203)" class="st11 st13 st17">c++</text>
	</g>
	<g>
		<text transform="matrix(1 0 0 1 408.5547 286.2461)" class="st11 st13 st18">java</text>
	</g>
</g>
</svg>
