<?xml version="1.0" encoding="utf-8"?>
<!-- Generator: Adobe Illustrator 28.1.0, SVG Export Plug-In . SVG Version: 6.00 Build 0)  -->
<svg version="1.1" id="Layer_1" xmlns="http://www.w3.org/2000/svg" xmlns:xlink="http://www.w3.org/1999/xlink" x="0px" y="0px"
	 viewBox="0 0 1920 1080" style="enable-background:new 0 0 1920 1080;" xml:space="preserve">
<style type="text/css">
	.st0{fill:none;stroke:#666666;stroke-miterlimit:10;}
	.st1{fill:none;stroke:#001465;stroke-miterlimit:10;}
	.st2{fill:#4D4D4D;}
	.st3{fill:#B99CFF;}
	.st4{fill:#666666;}
	.st5{fill:#FFFFFF;}
	.st6{font-family:'Montserrat-Bold';}
	.st7{font-size:62.0734px;}
</style>
<path class="st0" d="M1842.33,437.67l-11.96,9.54c-0.4,0.32-0.75,0.66-1.07,1.02c-7.6-4.61-15.96-7.92-24.65-9.92
	c0.11-0.46,0.2-0.92,0.22-1.39l0.64-14.11c0.2-4.39-3.74-8.1-8.79-8.27l-16.21-0.55c-5.04-0.17-9.31,3.26-9.51,7.65l-0.64,14.11
	c-0.02,0.47,0.02,0.94,0.09,1.4c-8.61,1.36-17.02,3.99-24.83,7.89c-0.28-0.38-0.59-0.75-0.96-1.1l-10.96-10.41
	c-3.41-3.24-9.21-3.46-12.94-0.5l-11.96,9.54c-3.72,2.97-3.98,8.02-0.57,11.26l10.96,10.41c0.36,0.35,0.76,0.65,1.17,0.93
	c-5.3,6.61-9.1,13.89-11.4,21.46c-0.52-0.1-1.06-0.17-1.6-0.19l-16.21-0.55c-2.43-0.08-4.75,0.66-6.54,2.08
	c-0.01,0.01-0.02,0.02-0.03,0.03c-1.8,1.44-2.84,3.41-2.93,5.54l-0.64,14.11l0,0c-0.2,4.39,3.74,8.1,8.79,8.27l16.21,0.55
	c0.55,0.02,1.08-0.02,1.61-0.09c1.56,7.5,4.58,14.81,9.07,21.62c-0.44,0.24-0.87,0.52-1.26,0.83l-11.96,9.54
	c-3.72,2.97-3.98,8.02-0.57,11.26l10.96,10.41c3.41,3.24,9.21,3.46,12.93,0.5l11.96-9.54c0.4-0.32,0.75-0.66,1.07-1.02
	c7.6,4.61,15.96,7.93,24.66,9.92c-0.11,0.45-0.2,0.91-0.23,1.39l-0.64,14.11c-0.1,2.13,0.76,4.16,2.43,5.72
	c1.66,1.56,3.92,2.47,6.36,2.55l16.21,0.55l0,0c2.51,0.09,4.82-0.72,6.54-2.09c1.74-1.39,2.87-3.35,2.97-5.56l0.64-14.11
	c0.02-0.48-0.03-0.94-0.1-1.4c8.61-1.36,17.02-3.99,24.84-7.89c0.28,0.38,0.6,0.75,0.96,1.1l10.96,10.41
	c3.41,3.24,9.21,3.46,12.93,0.5l11.96-9.54c3.72-2.97,3.98-8.02,0.57-11.26l-10.96-10.41c-0.36-0.35-0.76-0.65-1.18-0.93
	c5.3-6.62,9.11-13.89,11.4-21.46c0.52,0.1,1.05,0.18,1.6,0.2l16.21,0.55c2.51,0.09,4.82-0.72,6.54-2.09
	c1.74-1.39,2.87-3.35,2.97-5.56l0.64-14.11c0.2-4.39-3.75-8.1-8.79-8.27l-16.21-0.55c-0.54-0.02-1.08,0.02-1.61,0.08
	c-1.56-7.49-4.58-14.81-9.07-21.61c0.44-0.24,0.87-0.52,1.26-0.83l11.96-9.54c3.72-2.97,3.98-8.02,0.57-11.26l-10.96-10.41
	C1851.86,434.93,1846.05,434.7,1842.33,437.67z M1813.59,531.69c-17.49,13.94-44.74,12.89-60.75-2.33
	c-16.01-15.22-14.81-38.94,2.67-52.87c17.49-13.93,44.74-12.89,60.75,2.33C1832.28,494.04,1831.08,517.76,1813.59,531.69z"/>
<path class="st1" d="M277.18,711.28l-16.77,14.79c-0.56,0.49-1.05,1.02-1.49,1.58c-11.15-6.65-23.33-11.32-35.94-14.01
	c0.14-0.69,0.24-1.39,0.25-2.11l0.25-21.25c0.08-6.61-5.77-12.05-13.04-12.12l-23.35-0.23c-7.26-0.07-13.24,5.25-13.32,11.86
	l-0.25,21.25c-0.01,0.71,0.08,1.41,0.2,2.1c-12.33,2.37-24.3,6.63-35.36,12.8c-0.42-0.57-0.89-1.11-1.43-1.62l-16.26-15.25
	c-5.06-4.75-13.42-4.87-18.64-0.26L85.28,723.6c-5.22,4.6-5.35,12.21-0.29,16.96l16.26,15.25c0.54,0.51,1.13,0.95,1.73,1.35
	c-7.31,10.15-12.45,21.23-15.39,32.7c-0.76-0.13-1.53-0.22-2.31-0.23l-23.35-0.23c-3.5-0.04-6.8,1.16-9.31,3.38
	c-0.02,0.01-0.03,0.03-0.05,0.04c-2.52,2.24-3.92,5.24-3.96,8.44l-0.25,21.25l0,0c-0.08,6.61,5.77,12.05,13.04,12.12l23.35,0.23
	c0.79,0.01,1.56-0.07,2.31-0.19c2.6,11.22,7.29,22.11,14.07,32.18c-0.62,0.38-1.22,0.81-1.78,1.3l-16.77,14.79
	c-5.22,4.6-5.35,12.21-0.29,16.95l16.26,15.25c5.06,4.75,13.42,4.87,18.64,0.26l16.77-14.79c0.56-0.49,1.05-1.02,1.49-1.58
	c11.16,6.65,23.34,11.33,35.95,14.01c-0.14,0.68-0.25,1.38-0.26,2.1l-0.25,21.25c-0.04,3.2,1.3,6.23,3.76,8.52
	c2.46,2.29,5.76,3.57,9.28,3.6l23.35,0.23l0,0c3.61,0.03,6.9-1.26,9.31-3.39c2.44-2.15,3.97-5.15,4.01-8.48l0.25-21.25
	c0.01-0.72-0.08-1.42-0.21-2.1c12.33-2.37,24.3-6.63,35.37-12.8c0.42,0.57,0.89,1.11,1.43,1.62l16.26,15.25
	c5.06,4.75,13.42,4.86,18.64,0.26l16.77-14.79c5.22-4.6,5.35-12.21,0.29-16.95l-16.26-15.25c-0.54-0.51-1.13-0.95-1.74-1.35
	c7.31-10.15,12.45-21.23,15.4-32.71c0.75,0.13,1.52,0.23,2.31,0.24l23.35,0.23c3.61,0.03,6.9-1.26,9.31-3.39
	c2.44-2.15,3.97-5.15,4.01-8.48l0.25-21.25c0.08-6.61-5.77-12.05-13.04-12.12l-23.35-0.23c-0.79-0.01-1.56,0.07-2.31,0.18
	c-2.6-11.21-7.29-22.11-14.06-32.17c0.62-0.38,1.22-0.81,1.78-1.3l16.77-14.79c5.22-4.6,5.35-12.21,0.29-16.95l-16.26-15.25
	C290.76,706.79,282.4,706.68,277.18,711.28z M240.26,853.77c-24.5,21.61-63.77,21.06-87.52-1.23
	c-23.76-22.29-23.15-58.01,1.36-79.63c24.5-21.61,63.76-21.06,87.52,1.23C265.37,796.44,264.76,832.16,240.26,853.77z"/>
<g>
	<path class="st2" d="M1885.09,130.25h-226c-5.02,0-9.08-4.07-9.08-9.08V49.45c0-5.02,4.07-9.08,9.08-9.08h226
		c5.02,0,9.08,4.07,9.08,9.08v71.72C1894.17,126.19,1890.1,130.25,1885.09,130.25z"/>
</g>
<g>
	<g>
		<g>
			<path class="st3" d="M1764.5,816.08c0,4.63-6.75,8.38-15.07,8.38c-8.32,0-15.07-3.75-15.07-8.38c0-4.63,6.75-8.39,15.07-8.39
				C1757.75,807.7,1764.5,811.45,1764.5,816.08z"/>
		</g>
		<g>
			<path class="st3" d="M1749.43,831.8c-15.57,0-28.24-7.05-28.24-15.72c0-8.67,12.67-15.72,28.24-15.72
				c15.57,0,28.24,7.05,28.24,15.72C1777.67,824.75,1765,831.8,1749.43,831.8z M1749.43,802.29c-13.67,0-24.79,6.19-24.79,13.79
				s11.12,13.79,24.79,13.79c13.67,0,24.78-6.19,24.78-13.79S1763.1,802.29,1749.43,802.29z"/>
		</g>
	</g>
</g>
<path class="st2" d="M223.77,60.24l-18.62,4.61c-0.62,0.15-1.2,0.35-1.76,0.58c-5.61-7.54-12.8-14.11-21.12-19.53
	c0.39-0.4,0.75-0.82,1.05-1.28l8.92-13.6c2.77-4.23,0.63-9.44-4.77-11.61l-17.37-6.98c-5.4-2.17-12.06-0.5-14.83,3.73l-8.92,13.6
	c-0.3,0.46-0.52,0.93-0.71,1.41c-10.19-2.08-20.9-2.84-31.7-2.11c-0.08-0.49-0.21-0.98-0.41-1.46l-5.89-14.57
	c-1.83-4.53-8.04-7.06-13.83-5.62L75.2,12.01c-5.79,1.43-9.01,6.29-7.18,10.83l5.89,14.57c0.2,0.48,0.45,0.94,0.74,1.38
	C65,43.18,56.61,48.8,49.69,55.32c-0.51-0.3-1.05-0.59-1.64-0.82l-17.37-6.98c-2.6-1.05-5.57-1.24-8.35-0.55
	c-0.02,0-0.03,0.01-0.05,0.01c-2.8,0.71-5.09,2.22-6.43,4.27l-8.92,13.6l0,0c-2.77,4.23-0.63,9.44,4.77,11.61l17.37,6.98
	c0.59,0.24,1.19,0.41,1.81,0.55c-2.66,7.98-3.63,16.36-2.7,24.82c-0.62,0.07-1.25,0.16-1.87,0.32L7.7,113.74
	c-5.79,1.43-9.01,6.29-7.18,10.82l5.89,14.57c1.83,4.53,8.04,7.06,13.83,5.62l18.62-4.61c0.62-0.15,1.2-0.35,1.76-0.58
	c5.61,7.55,12.8,14.12,21.13,19.53c-0.39,0.4-0.75,0.82-1.06,1.28l-8.92,13.6c-1.34,2.05-1.59,4.39-0.69,6.58
	c0.9,2.19,2.84,3.98,5.46,5.03l17.37,6.98l0,0c2.69,1.08,5.68,1.21,8.35,0.55c2.71-0.67,5.09-2.15,6.48-4.28l8.92-13.6
	c0.3-0.46,0.52-0.94,0.71-1.41c10.19,2.08,20.9,2.84,31.71,2.12c0.08,0.49,0.21,0.98,0.41,1.46l5.89,14.57
	c1.83,4.53,8.04,7.06,13.83,5.62l18.62-4.61c5.79-1.43,9.01-6.29,7.18-10.82l-5.89-14.57c-0.2-0.49-0.45-0.94-0.74-1.38
	c9.64-4.39,18.03-10.02,24.95-16.54c0.51,0.3,1.04,0.59,1.63,0.83l17.37,6.98c2.69,1.08,5.68,1.21,8.35,0.55
	c2.71-0.67,5.09-2.15,6.48-4.28l8.92-13.6c2.77-4.23,0.63-9.44-4.77-11.61l-17.37-6.98c-0.58-0.23-1.19-0.41-1.81-0.56
	c2.66-7.98,3.63-16.36,2.7-24.81c0.62-0.07,1.25-0.16,1.87-0.32l18.62-4.61c5.79-1.43,9.01-6.29,7.18-10.82l-5.89-14.57
	C235.77,61.33,229.56,58.81,223.77,60.24z M137.61,141.12c-27.21,6.74-56.34-5.11-64.94-26.4c-8.61-21.3,6.53-44.1,33.73-50.84
	c27.2-6.74,56.34,5.11,64.94,26.41C179.94,111.58,164.81,134.39,137.61,141.12z"/>
<path class="st4" d="M1414.76,190.22l-12.17,2.58c-0.41,0.09-0.79,0.21-1.16,0.36c-2.97-6.38-7.02-12.08-11.88-16.91
	c0.28-0.3,0.54-0.61,0.77-0.96l6.71-10.36c2.09-3.22,1.13-7.52-2.12-9.59l-10.48-6.64c-3.26-2.06-7.61-1.12-9.7,2.1l-6.71,10.36
	c-0.23,0.35-0.41,0.72-0.56,1.09c-6.3-2.28-13.03-3.53-19.94-3.6c-0.02-0.4-0.06-0.79-0.14-1.19l-2.6-12.03
	c-0.81-3.74-4.55-6.14-8.34-5.34l-12.17,2.58c-3.79,0.8-6.21,4.5-5.4,8.24l2.6,12.03c0.09,0.4,0.21,0.78,0.36,1.15
	c-6.45,2.94-12.21,6.94-17.11,11.75c-0.3-0.27-0.62-0.53-0.97-0.76l-10.48-6.64c-1.57-0.99-3.43-1.33-5.26-0.94
	c-0.01,0-0.02,0-0.03,0.01c-1.83,0.4-3.4,1.48-4.41,3.04l-6.71,10.36h0c-2.09,3.22-1.13,7.52,2.12,9.59l10.48,6.64
	c0.35,0.22,0.73,0.4,1.1,0.55c-2.31,6.23-3.57,12.89-3.64,19.72c-0.4,0.01-0.8,0.06-1.21,0.14l-12.17,2.58
	c-3.79,0.8-6.21,4.5-5.4,8.24l2.6,12.03c0.81,3.74,4.55,6.14,8.34,5.33l12.17-2.58c0.4-0.09,0.79-0.21,1.16-0.36
	c2.97,6.38,7.02,12.08,11.89,16.92c-0.28,0.3-0.54,0.61-0.77,0.96l-6.71,10.36c-1.01,1.56-1.35,3.42-0.95,5.23
	c0.4,1.81,1.49,3.36,3.07,4.36l10.48,6.64l0,0c1.62,1.03,3.51,1.31,5.26,0.94c1.77-0.37,3.39-1.42,4.44-3.04l6.71-10.36
	c0.23-0.35,0.4-0.72,0.56-1.09c6.3,2.28,13.04,3.53,19.95,3.6c0.02,0.4,0.06,0.79,0.14,1.2l2.6,12.03c0.81,3.74,4.55,6.14,8.34,5.33
	l12.17-2.58c3.79-0.8,6.21-4.5,5.4-8.24l-2.6-12.03c-0.09-0.4-0.21-0.78-0.36-1.15c6.46-2.94,12.22-6.94,17.11-11.75
	c0.3,0.27,0.62,0.54,0.97,0.76l10.48,6.64c1.62,1.03,3.51,1.31,5.26,0.94c1.77-0.37,3.39-1.42,4.44-3.04l6.71-10.36
	c2.09-3.22,1.13-7.52-2.12-9.59l-10.48-6.64c-0.35-0.22-0.72-0.4-1.1-0.56c2.31-6.23,3.57-12.89,3.64-19.72
	c0.4-0.01,0.8-0.06,1.21-0.14l12.17-2.58c3.79-0.8,6.21-4.5,5.4-8.24l-2.6-12.03C1422.28,191.81,1418.54,189.42,1414.76,190.22z
	 M1353.83,249.84c-17.78,3.76-35.34-7.48-39.15-25.05c-3.81-17.58,7.56-34.94,25.34-38.7c17.78-3.76,35.34,7.48,39.15,25.05
	C1382.98,228.72,1371.61,246.08,1353.83,249.84z"/>
<g>
	<text transform="matrix(1.3583 0 0 1 1701.6465 105.3154)" class="st5 st6 st7">&lt;/&gt;</text>
</g>
</svg>
