<?xml version="1.0" encoding="UTF-8"?>
<svg version="1.1" xmlns="http://www.w3.org/2000/svg" width="1920" height="1080">
<path d="M0 0 C633.6 0 1267.2 0 1920 0 C1920 356.4 1920 712.8 1920 1080 C1286.4 1080 652.8 1080 0 1080 C0 723.6 0 367.2 0 0 Z " fill="#FEFEFE" transform="translate(0,0)"/>
<path d="M0 0 C0.33 0.66 0.66 1.32 1 2 C1.66 2.28875 2.32 2.5775 3 2.875 C5 4 5 4 5.625 6.0625 C5.74875 6.701875 5.8725 7.34125 6 8 C6.66 8.33 7.32 8.66 8 9 C3.72881356 12.05084746 3.72881356 12.05084746 0.3125 11.8125 C-2 11 -2 11 -4 9 C-4.39764263 7.01178687 -4.73775349 5.01055661 -5 3 C-4.360625 2.87625 -3.72125 2.7525 -3.0625 2.625 C-2.0415625 2.315625 -2.0415625 2.315625 -1 2 C-0.67 1.34 -0.34 0.68 0 0 Z " fill="#1B1B1B" transform="translate(858,784)"/>
<path d="M0 0 C2.01544839 2.26737944 2.94914998 3.57285984 3.3125 6.625 C3 9 3 9 1 11 C-2 11.25 -2 11.25 -5 11 C-5.66 10.34 -6.32 9.68 -7 9 C-7 7.68 -7 6.36 -7 5 C-7.66 4.67 -8.32 4.34 -9 4 C-5.86501708 2.14223235 -3.62528568 1.79859524 0 2 C0 1.34 0 0.68 0 0 Z " fill="#181818" transform="translate(1066,782)"/>
<path d="M0 0 C0.33 0.66 0.66 1.32 1 2 C3.52733235 2.65555119 3.52733235 2.65555119 6 3 C6.66 5.31 7.32 7.62 8 10 C5.5595659 11.53656962 4.29255898 12.02089707 1.375 11.8125 C-1 11 -1 11 -3 8 C-2.6169847 5.03163146 -1.40416706 2.62111184 0 0 Z " fill="#101010" transform="translate(923,437)"/>
<path d="M0 0 C2.4375 0.8125 2.4375 0.8125 4.4375 2.8125 C4.08450993 6.25415321 3.39168308 7.88122538 1.4375 10.8125 C-0.5425 10.1525 -2.5225 9.4925 -4.5625 8.8125 C-5.89091008 3.37809513 -5.89091008 3.37809513 -4.4375 0.875 C-2.5625 -0.1875 -2.5625 -0.1875 0 0 Z " fill="#121212" transform="translate(1081.5625,358.1875)"/>
<path d="M0 0 C1.670625 0.061875 1.670625 0.061875 3.375 0.125 C3.375 1.115 3.375 2.105 3.375 3.125 C4.365 3.455 5.355 3.785 6.375 4.125 C5.715 4.125 5.055 4.125 4.375 4.125 C3.715 5.775 3.055 7.425 2.375 9.125 C-0.5 9.25 -0.5 9.25 -3.625 9.125 C-5.625 7.125 -5.625 7.125 -5.875 4.625 C-5.45054733 0.38047335 -4.12667778 0.14229923 0 0 Z " fill="#111111" transform="translate(927.625,560.875)"/>
<path d="M0 0 C1.4540625 0.0309375 1.4540625 0.0309375 2.9375 0.0625 C3.22625 0.701875 3.515 1.34125 3.8125 2 C4.76573451 4.21456079 4.76573451 4.21456079 6.9375 5.0625 C6.2775 5.0625 5.6175 5.0625 4.9375 5.0625 C4.2775 6.3825 3.6175 7.7025 2.9375 9.0625 C0.0625 9.25 0.0625 9.25 -3.0625 9.0625 C-5.0625 6.0625 -5.0625 6.0625 -4.75 3.4375 C-3.74055958 -0.0496578 -3.77085022 0.07695613 0 0 Z " fill="#121212" transform="translate(908.0625,348.9375)"/>
<path d="M0 0 C1.52519276 0.08937803 3.04681929 0.24537146 4.5625 0.4375 C5.38878906 0.53933594 6.21507812 0.64117188 7.06640625 0.74609375 C7.70449219 0.82988281 8.34257813 0.91367187 9 1 C6.125 7.875 6.125 7.875 5 9 C2.30917128 8.82364548 -0.32851446 8.38164079 -3 8 C-1.125 1.125 -1.125 1.125 0 0 Z " fill="#131313" transform="translate(898,619)"/>
<path d="M0 0 C1.45742463 -0.08096803 2.91612807 -0.13917774 4.375 -0.1875 C5.18710938 -0.22230469 5.99921875 -0.25710938 6.8359375 -0.29296875 C7.55007813 -0.19628906 8.26421875 -0.09960938 9 0 C11 3 11 3 10.625 5.6875 C10.41875 6.450625 10.2125 7.21375 10 8 C4.71698113 9.32075472 4.71698113 9.32075472 1.625 7.9375 C0 6 0 6 -0.25 2.8125 C-0.1675 1.884375 -0.085 0.95625 0 0 Z " fill="#131313" transform="translate(1141,499)"/>
<path d="M0 0 C3.29714793 0.32971479 4.6226839 0.6226839 7 3 C6.67028521 6.29714793 6.3773161 7.6226839 4 10 C1.5 10.3125 1.5 10.3125 -1 10 C-3 7 -3 7 -2.75 4.4375 C-2 2 -2 2 0 0 Z " fill="#111111" transform="translate(1145,380)"/>
<path d="M0 0 C0.78375 0.04125 1.5675 0.0825 2.375 0.125 C3.44152192 2.42868736 4.43921005 4.76518187 5.375 7.125 C5.045 7.785 4.715 8.445 4.375 9.125 C-1.6796875 9.3203125 -1.6796875 9.3203125 -3.625 9.125 C-4.285 8.465 -4.945 7.805 -5.625 7.125 C-5.20813063 2.95630627 -4.65455455 0.22164545 0 0 Z " fill="#101010" transform="translate(829.625,715.875)"/>
<path d="M0 0 C2.80362763 -0.22732116 4.46186517 -0.34081872 6.875 1.1875 C8 3 8 3 7.8125 5.5625 C7 8 7 8 5 10 C1.70285207 9.67028521 0.3773161 9.3773161 -2 7 C-1.6730244 4.38419521 -1.17960932 2.35921863 0 0 Z " fill="#111111" transform="translate(1190,669)"/>
<path d="M0 0 C3.125 0.375 3.125 0.375 6 1 C6.33 1.99 6.66 2.98 7 4 C7.66 4.33 8.32 4.66 9 5 C8.34 5 7.68 5 7 5 C6.71125 5.598125 6.4225 6.19625 6.125 6.8125 C5 9 5 9 3 12 C3 11.34 3 10.68 3 10 C0.525 9.01 0.525 9.01 -2 8 C-2.125 5.125 -2.125 5.125 -2 2 C-1.34 1.34 -0.68 0.68 0 0 Z " fill="#111111" transform="translate(795,569)"/>
<path d="M0 0 C2.4375 0.8125 2.4375 0.8125 4.4375 2.8125 C4.10778521 6.10964793 3.8148161 7.4351839 1.4375 9.8125 C-4.13068182 9.24431818 -4.13068182 9.24431818 -5.5625 7.8125 C-5.8607732 4.97890458 -5.91852594 3.37464622 -4.375 0.9375 C-2.5625 -0.1875 -2.5625 -0.1875 0 0 Z " fill="#0E0E0E" transform="translate(1011.5625,472.1875)"/>
<path d="M0 0 C2.5 0.25 2.5 0.25 4.5 2.25 C4.375 5.75 4.375 5.75 3.5 9.25 C1.4375 10.6875 1.4375 10.6875 -0.5 11.25 C-2.5 10.125 -2.5 10.125 -4.5 8.25 C-4.875 5.1875 -4.875 5.1875 -4.5 2.25 C-2.5 0.25 -2.5 0.25 0 0 Z " fill="#0D0D0D" transform="translate(1010.5,626.75)"/>
<path d="M0 0 C3.125 0.375 3.125 0.375 6 1 C6.625 4.375 6.625 4.375 7 8 C5 10 5 10 2.5 10.25 C0 10 0 10 -2 8 C-2.25 5 -2.25 5 -2 2 C-1.34 1.34 -0.68 0.68 0 0 Z " fill="#0C0C0C" transform="translate(726,392)"/>
<path d="M0 0 C2.375 -0.125 2.375 -0.125 5 0 C7 2 7 2 7.25 4.5 C7 7 7 7 5 9 C2.375 9.125 2.375 9.125 0 9 C-0.66 7.68 -1.32 6.36 -2 5 C-4.31 5 -6.62 5 -9 5 C-9 4.67 -9 4.34 -9 4 C-6.69 4 -4.38 4 -2 4 C-1.34 2.68 -0.68 1.36 0 0 Z " fill="#0C0C0C" transform="translate(1002,347)"/>
<path d="M0 0 C3.29714793 0.32971479 4.6226839 0.6226839 7 3 C6.67028521 6.29714793 6.3773161 7.6226839 4 10 C0.70285207 9.67028521 -0.6226839 9.3773161 -3 7 C-2.67028521 3.70285207 -2.3773161 2.3773161 0 0 Z " fill="#0D0D0D" transform="translate(1122,310)"/>
<path d="M0 0 C2.5625 0.3125 2.5625 0.3125 4.4375 1.5 C5.5625 3.3125 5.5625 3.3125 5.3125 5.9375 C4.5625 8.3125 4.5625 8.3125 3.5625 9.3125 C0.625 9.5 0.625 9.5 -2.4375 9.3125 C-4.4375 7.3125 -4.4375 7.3125 -4.6875 4.8125 C-4.34234788 1.3609788 -3.44095645 0.44114826 0 0 Z " fill="#0D0D0D" transform="translate(1137.4375,739.6875)"/>
<path d="M0 0 C2.5 0.25 2.5 0.25 4.5 2.25 C4.125 5.875 4.125 5.875 3.5 9.25 C1.1875 9.875 1.1875 9.875 -1.5 10.25 C-2.49 9.59 -3.48 8.93 -4.5 8.25 C-4.8125 5.25 -4.8125 5.25 -4.5 2.25 C-2.5 0.25 -2.5 0.25 0 0 Z " fill="#090909" transform="translate(717.5,541.75)"/>
<path d="M0 0 C3.125 0.375 3.125 0.375 6 1 C6.33 3.31 6.66 5.62 7 8 C4 10 4 10 1.375 9.6875 C-1 9 -1 9 -2 8 C-2.1875 5.0625 -2.1875 5.0625 -2 2 C-1.34 1.34 -0.68 0.68 0 0 Z " fill="#0F0F0F" transform="translate(795,320)"/>
<path d="M0 0 C2.05078125 0.03255208 4.1015625 0.06510417 6.15234375 0.09765625 C6.27734375 3.47265625 6.27734375 3.47265625 6.15234375 7.09765625 C4.15234375 9.09765625 4.15234375 9.09765625 1.65234375 9.34765625 C-0.84765625 9.09765625 -0.84765625 9.09765625 -2.84765625 7.09765625 C-3.03515625 4.03515625 -3.03515625 4.03515625 -2.84765625 1.09765625 C-1.84765625 0.09765625 -1.84765625 0.09765625 0 0 Z " fill="#0B0B0B" transform="translate(1009.84765625,423.90234375)"/>
<path d="M0 0 C2.9375 0.1875 2.9375 0.1875 3.9375 1.1875 C3.97842937 3.52047433 3.97991723 5.85455225 3.9375 8.1875 C3.133125 8.31125 2.32875 8.435 1.5 8.5625 C0.654375 8.76875 -0.19125 8.975 -1.0625 9.1875 C-1.3925 9.8475 -1.7225 10.5075 -2.0625 11.1875 C-4.07794839 8.92012056 -5.01164998 7.61464016 -5.375 4.5625 C-4.875995 0.77006199 -3.73229533 0.22850788 0 0 Z " fill="#0C0C0C" transform="translate(918.0625,306.8125)"/>
<path d="M0 0 C3.125 0.375 3.125 0.375 6 1 C7.125 6.75 7.125 6.75 6 9 C2.625 9.125 2.625 9.125 -1 9 C-1.66 8.34 -2.32 7.68 -3 7 C-2.67028521 3.70285207 -2.3773161 2.3773161 0 0 Z " fill="#0C0C0C" transform="translate(871,278)"/>
<path d="M0 0 C3.125 0.375 3.125 0.375 6 1 C6.33 3.31 6.66 5.62 7 8 C4 10 4 10 1.375 9.6875 C-1 9 -1 9 -2 8 C-2.1875 5.0625 -2.1875 5.0625 -2 2 C-1.34 1.34 -0.68 0.68 0 0 Z " fill="#0C0C0C" transform="translate(689,496)"/>
<path d="M0 0 C2.5 0.25 2.5 0.25 4.5 2.25 C4.6875 5.3125 4.6875 5.3125 4.5 8.25 C3.5 9.25 3.5 9.25 0 9.375 C-3.5 9.25 -3.5 9.25 -4.5 8.25 C-4.6875 5.3125 -4.6875 5.3125 -4.5 2.25 C-2.5 0.25 -2.5 0.25 0 0 Z " fill="#090909" transform="translate(958.5,482.75)"/>
<path d="M0 0 C3.29714793 0.32971479 4.6226839 0.6226839 7 3 C6.625 6.125 6.625 6.125 6 9 C3.125 9.625 3.125 9.625 0 10 C-2 8 -2 8 -2.25 5 C-2 2 -2 2 0 0 Z " fill="#080808" transform="translate(828,406)"/>
<path d="M0 0 C2.875 -0.125 2.875 -0.125 6 0 C8 2 8 2 8.3125 4.5 C8.1578125 5.7375 8.1578125 5.7375 8 7 C5 9 5 9 2.5625 8.9375 C-0.77525938 7.71636852 -2.00839065 5.87676906 -4 3 C-3.01 2.67 -2.02 2.34 -1 2 C-0.67 1.34 -0.34 0.68 0 0 Z " fill="#0A0A0A" transform="translate(1174,373)"/>
<path d="M0 0 C0 2.31 0 4.62 0 7 C-3.375 7.625 -3.375 7.625 -7 8 C-9 6 -9 6 -9.125 2.875 C-9.08375 1.92625 -9.0425 0.9775 -9 0 C-5.93109813 -1.53445094 -3.29905734 -0.54984289 0 0 Z " fill="#070707" transform="translate(968,806)"/>
<path d="M0 0 C1.134375 0.020625 2.26875 0.04125 3.4375 0.0625 C4.0625 3.4375 4.0625 3.4375 4.4375 7.0625 C2.4375 9.0625 2.4375 9.0625 -0.0625 9.3125 C-2.5625 9.0625 -2.5625 9.0625 -4.5625 7.0625 C-4.75 4 -4.75 4 -4.5625 1.0625 C-3.5625 0.0625 -3.5625 0.0625 0 0 Z " fill="#080808" transform="translate(1006.5625,764.9375)"/>
<path d="M0 0 C2.5 0.25 2.5 0.25 4.5 2.25 C4.625 5.375 4.625 5.375 4.5 8.25 C1.76752652 9.61623674 -0.48198902 9.378426 -3.5 9.25 C-4.5 8.25 -4.5 8.25 -4.6875 5.3125 C-4.45388199 1.49673913 -3.88335294 0.38833529 0 0 Z " fill="#0B0B0B" transform="translate(1010.5,703.75)"/>
<path d="M0 0 C3.29714793 0.32971479 4.6226839 0.6226839 7 3 C6.625 6.125 6.625 6.125 6 9 C3.125 9.625 3.125 9.625 0 10 C-2 8 -2 8 -2.25 5 C-2 2 -2 2 0 0 Z " fill="#070707" transform="translate(790,439)"/>
<path d="M0 0 C2.5 0.25 2.5 0.25 4.5 2.25 C4.6875 5.3125 4.6875 5.3125 4.5 8.25 C3.5 9.25 3.5 9.25 0.5625 9.4375 C-2.5 9.25 -2.5 9.25 -4.5 7.25 C-4.75 4.75 -4.75 4.75 -4.5 2.25 C-2.5 0.25 -2.5 0.25 0 0 Z " fill="#060606" transform="translate(756.5,715.75)"/>
<path d="M0 0 C2.9375 0.1875 2.9375 0.1875 3.9375 1.1875 C4.125 4.125 4.125 4.125 3.9375 7.1875 C1.9375 9.1875 1.9375 9.1875 -0.5625 9.4375 C-3.0625 9.1875 -3.0625 9.1875 -5.0625 7.1875 C-5.3125 4.6875 -5.3125 4.6875 -5.0625 2.1875 C-3.0625 0.1875 -3.0625 0.1875 0 0 Z " fill="#060606" transform="translate(1088.0625,604.8125)"/>
<path d="M0 0 C2.5 0.25 2.5 0.25 4.5 2.25 C4.75 4.75 4.75 4.75 4.5 7.25 C2.5 9.25 2.5 9.25 -0.5625 9.4375 C-3.5 9.25 -3.5 9.25 -4.5 8.25 C-4.6875 5.3125 -4.6875 5.3125 -4.5 2.25 C-2.5 0.25 -2.5 0.25 0 0 Z " fill="#070707" transform="translate(1154.5,601.75)"/>
<path d="M0 0 C2.5 0.25 2.5 0.25 4.5 2.25 C4.6875 5.3125 4.6875 5.3125 4.5 8.25 C3.5 9.25 3.5 9.25 0.5625 9.4375 C-2.5 9.25 -2.5 9.25 -4.5 7.25 C-4.75 4.75 -4.75 4.75 -4.5 2.25 C-2.5 0.25 -2.5 0.25 0 0 Z " fill="#0B0B0B" transform="translate(1119.5,550.75)"/>
<path d="M0 0 C2.5 0.25 2.5 0.25 4.5 2.25 C4.75 4.75 4.75 4.75 4.5 7.25 C2.5 9.25 2.5 9.25 -0.5625 9.4375 C-3.5 9.25 -3.5 9.25 -4.5 8.25 C-4.6875 5.3125 -4.6875 5.3125 -4.5 2.25 C-2.5 0.25 -2.5 0.25 0 0 Z " fill="#050505" transform="translate(1043.5,542.75)"/>
<path d="M0 0 C3.625 0.375 3.625 0.375 7 1 C7 3.31 7 5.62 7 8 C3.625 8.625 3.625 8.625 0 9 C-2 7 -2 7 -2.25 4.5 C-2 2 -2 2 0 0 Z " fill="#070707" transform="translate(841,511)"/>
<path d="M0 0 C2.875 -0.125 2.875 -0.125 6 0 C8 2 8 2 8.25 4.5 C8 7 8 7 6 9 C2.375 8.625 2.375 8.625 -1 8 C-1.125 2.25 -1.125 2.25 0 0 Z " fill="#050505" transform="translate(1219,480)"/>
<path d="M0 0 C2.9375 0.1875 2.9375 0.1875 3.9375 1.1875 C4.125 4.125 4.125 4.125 3.9375 7.1875 C1.9375 9.1875 1.9375 9.1875 -0.5625 9.4375 C-3.0625 9.1875 -3.0625 9.1875 -5.0625 7.1875 C-5.3125 4.6875 -5.3125 4.6875 -5.0625 2.1875 C-3.0625 0.1875 -3.0625 0.1875 0 0 Z " fill="#080808" transform="translate(990.0625,266.8125)"/>
<path d="M0 0 C2.4375 0.375 2.4375 0.375 4.4375 2.375 C4.6875 4.875 4.6875 4.875 4.4375 7.375 C2.4375 9.375 2.4375 9.375 0 9.8125 C-2.5625 9.375 -2.5625 9.375 -4.375 6.875 C-4.766875 6.05 -5.15875 5.225 -5.5625 4.375 C-3.24697412 0.47516694 -3.24697412 0.47516694 0 0 Z " fill="#040404" transform="translate(1080.5625,675.625)"/>
<path d="M0 0 C2.5 0.25 2.5 0.25 4.5 2.25 C4.625 5.375 4.625 5.375 4.5 8.25 C1.125 8.875 1.125 8.875 -2.5 9.25 C-4.5 7.25 -4.5 7.25 -4.75 4.75 C-4.40058445 1.25584452 -3.49415548 0.34941555 0 0 Z " fill="#040404" transform="translate(932.5,675.75)"/>
<path d="M0 0 C3.0625 0.1875 3.0625 0.1875 5.0625 2.1875 C4.49431818 7.75568182 4.49431818 7.75568182 3.0625 9.1875 C0.625 9.375 0.625 9.375 -1.9375 9.1875 C-3.9375 7.1875 -3.9375 7.1875 -4.125 4.125 C-3.8775 0.2475 -3.8775 0.2475 0 0 Z " fill="#050505" transform="translate(817.9375,651.8125)"/>
<path d="M0 0 C2.5 0.25 2.5 0.25 4.5 2.25 C4.625 5.375 4.625 5.375 4.5 8.25 C1.125 8.875 1.125 8.875 -2.5 9.25 C-4.5 7.25 -4.5 7.25 -4.75 4.75 C-4.40058445 1.25584452 -3.49415548 0.34941555 0 0 Z " fill="#070707" transform="translate(703.5,623.75)"/>
<path d="M0 0 C2.5 0.25 2.5 0.25 4.5 2.25 C4.75 4.75 4.75 4.75 4.5 7.25 C2.5 9.25 2.5 9.25 0 9.5 C-2.5 9.25 -2.5 9.25 -4.5 7.25 C-4.75 4.75 -4.75 4.75 -4.5 2.25 C-2.5 0.25 -2.5 0.25 0 0 Z " fill="#020202" transform="translate(932.5,749.75)"/>
<path d="M0 0 C2.5 0.25 2.5 0.25 4.5 2.25 C4.75 4.75 4.75 4.75 4.5 7.25 C2.5 9.25 2.5 9.25 0 9.5 C-2.5 9.25 -2.5 9.25 -4.5 7.25 C-4.75 4.75 -4.75 4.75 -4.5 2.25 C-2.5 0.25 -2.5 0.25 0 0 Z " fill="#040404" transform="translate(1228.5,566.75)"/>
<path d="M0 0 C2.5 0.25 2.5 0.25 4.5 2.25 C4.75 4.75 4.75 4.75 4.5 7.25 C2.5 9.25 2.5 9.25 0 9.5 C-2.5 9.25 -2.5 9.25 -4.5 7.25 C-4.75 4.75 -4.75 4.75 -4.5 2.25 C-2.5 0.25 -2.5 0.25 0 0 Z " fill="#010101" transform="translate(1043.5,424.75)"/>
<path d="M0 0 C1.485 0.99 1.485 0.99 3 2 C5.33199388 2.07905064 7.66832622 2.08798769 10 2 C8.68 2.33 7.36 2.66 6 3 C5.896875 3.763125 5.79375 4.52625 5.6875 5.3125 C4.95635961 8.17059424 4.23048087 9.15742885 2 11 C1.855625 10.113125 1.71125 9.22625 1.5625 8.3125 C1.08980022 5.52882354 0.56929815 2.76516243 0 0 Z " fill="#B0B0B0" transform="translate(1112,676)"/>
<path d="M0 0 C0 0.66 0 1.32 0 2 C1.9600281 3.63676257 1.9600281 3.63676257 4 5 C2.02 5 0.04 5 -2 5 C-2 6.65 -2 8.3 -2 10 C-2.66 10 -3.32 10 -4 10 C-4.33 7.03 -4.66 4.06 -5 1 C-2 0 -2 0 0 0 Z " fill="#B5B5B5" transform="translate(798,507)"/>
<path d="M0 0 C0.33 0.99 0.66 1.98 1 3 C0.01 3.33 -0.98 3.66 -2 4 C-2 4.66 -2 5.32 -2 6 C-4.70879335 7.35439668 -7.00933268 7.06501451 -10 7 C-7 5 -7 5 -4 5 C-4 3.68 -4 2.36 -4 1 C-2.68 0.67 -1.36 0.34 0 0 Z " fill="#BFBFBF" transform="translate(1090,613)"/>
<path d="M0 0 C0.66 0 1.32 0 2 0 C2 2.31 2 4.62 2 7 C3.98 7 5.96 7 8 7 C6 9 6 9 3.4375 9.1875 C1 9 1 9 0 8 C-0.14115161 5.32941149 -0.04247107 2.67567762 0 0 Z " fill="#B4B4B4" transform="translate(925,487)"/>
<path d="M0 0 C2.88437779 1.29299694 4.87219421 2.65941363 7 5 C5.63016497 8.16115776 5.0109362 8.9927092 2 11 C3 9 4 7 5 5 C4.360625 4.731875 3.72125 4.46375 3.0625 4.1875 C1 3 1 3 0 0 Z " fill="#B1B1B1" transform="translate(1020,408)"/>
<path d="M0 0 C0.33 2.31 0.66 4.62 1 7 C0.01 7.33 -0.98 7.66 -2 8 C-2.66 5.69 -3.32 3.38 -4 1 C-2 0 -2 0 0 0 Z " fill="#A8A8A8" transform="translate(922,423)"/>
<path d="M0 0 C0 0.66 0 1.32 0 2 C-0.99 2.33 -1.98 2.66 -3 3 C-3.33 3.66 -3.66 4.32 -4 5 C-4.66 5 -5.32 5 -6 5 C-6.33 3.35 -6.66 1.7 -7 0 C-3.98968256 -0.93423645 -3.13349732 -1.04449911 0 0 Z " fill="#A5A5A5" transform="translate(1115,568)"/>
<path d="M0 0 C0.66 0.33 1.32 0.66 2 1 C2 1.66 2 2.32 2 3 C2.99 3 3.98 3 5 3 C4.34 4.32 3.68 5.64 3 7 C0.525 6.01 0.525 6.01 -2 5 C-2 4.34 -2 3.68 -2 3 C-1.34 3 -0.68 3 0 3 C0 2.01 0 1.02 0 0 Z " fill="#A5A5A5" transform="translate(870,565)"/>
<path d="M0 0 C0.33 0.66 0.66 1.32 1 2 C2.97888961 2.72693904 4.97954558 3.39816251 7 4 C6.67 4.66 6.34 5.32 6 6 C5.2575 5.62875 4.515 5.2575 3.75 4.875 C1.05716353 3.70484137 1.05716353 3.70484137 -1.3125 4.875 C-2.1478125 5.431875 -2.1478125 5.431875 -3 6 C-1.125 1.125 -1.125 1.125 0 0 Z " fill="#ABABAB" transform="translate(1105,579)"/>
<path d="M0 0 C0.66 0 1.32 0 2 0 C3.625 2 3.625 2 5 4 C4 6 3 8 2 10 C1.34 10 0.68 10 0 10 C0 6.7 0 3.4 0 0 Z " fill="#A6A6A6" transform="translate(1166,411)"/>
<path d="M0 0 C0.66 0 1.32 0 2 0 C2.66 1.65 3.32 3.3 4 5 C3.34 5 2.68 5 2 5 C2 5.66 2 6.32 2 7 C0.68 6.67 -0.64 6.34 -2 6 C-1.34 4.02 -0.68 2.04 0 0 Z " fill="#A1A1A1" transform="translate(928,603)"/>
<path d="M0 0 C0.66 0 1.32 0 2 0 C2 0.66 2 1.32 2 2 C3.65 1.67 5.3 1.34 7 1 C6.505 1.61875 6.01 2.2375 5.5 2.875 C3.80777227 4.83880904 3.80777227 4.83880904 4 7 C3.34 7 2.68 7 2 7 C2 6.34 2 5.68 2 5 C1.34 4.67 0.68 4.34 0 4 C0 2.68 0 1.36 0 0 Z " fill="#A2A2A2" transform="translate(988,572)"/>
<path d="M0 0 C1.5625 1.8125 1.5625 1.8125 3 4 C2.67 4.99 2.34 5.98 2 7 C1.34 6.67 0.68 6.34 0 6 C-2.01927511 6.60578253 -4.02253397 7.26919734 -6 8 C-4.06745228 5.9754262 -2.36841312 4.57894208 0 3 C0 2.01 0 1.02 0 0 Z " fill="#A2A2A2" transform="translate(774,514)"/>
<path d="M0 0 C2.31 0 4.62 0 7 0 C7 0.66 7 1.32 7 2 C5.35 2 3.7 2 2 2 C2 2.66 2 3.32 2 4 C0.68 3.67 -0.64 3.34 -2 3 C-1.34 3 -0.68 3 0 3 C0 2.01 0 1.02 0 0 Z " fill="#BEBEBE" transform="translate(696,501)"/>
<path d="M0 0 C1.32 0 2.64 0 4 0 C4.33 1.65 4.66 3.3 5 5 C4.05125 4.835 3.1025 4.67 2.125 4.5 C-0.80168901 3.9473365 -0.80168901 3.9473365 -3 4 C-3 3.34 -3 2.68 -3 2 C-2.01 2 -1.02 2 0 2 C0 1.34 0 0.68 0 0 Z " fill="#A3A3A3" transform="translate(872,702)"/>
<path d="M0 0 C-1.36944102 2.94956528 -2.87830409 5.52468811 -5 8 C-5.66 8 -6.32 8 -7 8 C-7 5 -7 5 -4.625 2.3125 C-2 0 -2 0 0 0 Z " fill="#C6C6C6" transform="translate(908,623)"/>
<path d="M0 0 C0.66 0 1.32 0 2 0 C2.433125 1.2065625 2.433125 1.2065625 2.875 2.4375 C3.73262568 5.1326468 3.73262568 5.1326468 6 6 C6 6.66 6 7.32 6 8 C3.5625 7.25 3.5625 7.25 1 6 C0.12517299 3.84657966 0 2.30989225 0 0 Z " fill="#989898" transform="translate(789,554)"/>
<path d="M0 0 C1.65 0.33 3.3 0.66 5 1 C4.67 1.66 4.34 2.32 4 3 C3.34 3 2.68 3 2 3 C1.67 4.32 1.34 5.64 1 7 C1 6.34 1 5.68 1 5 C0.34 4.67 -0.32 4.34 -1 4 C-0.67 2.68 -0.34 1.36 0 0 Z " fill="#9B9B9B" transform="translate(1148,532)"/>
<path d="M0 0 C0.99 0 1.98 0 3 0 C3 2.31 3 4.62 3 7 C2.01 6.34 1.02 5.68 0 5 C-0.99 5.495 -0.99 5.495 -2 6 C-1.34 4.02 -0.68 2.04 0 0 Z " fill="#989898" transform="translate(969,518)"/>
<path d="M0 0 C2.64 0.33 5.28 0.66 8 1 C8 1.66 8 2.32 8 3 C5.69 3 3.38 3 1 3 C0.67 2.01 0.34 1.02 0 0 Z " fill="#A4A4A4" transform="translate(833,718)"/>
</svg>
